<!-- icon666.com - MILLIONS vector ICONS FREE --><svg xmlns="http://www.w3.org/2000/svg" xmlns:xlink="http://www.w3.org/1999/xlink" id="FLATICON_LINE" viewBox="0 0 32 32" data-name="FLATICON LINE"><linearGradient id="linear-gradient" gradientUnits="userSpaceOnUse" x1="2" x2="30" y1="15.964" y2="15.964"><stop offset="0" stop-color="#127293"/><stop offset="1" stop-color="#54ac7c"/></linearGradient><path d="m16 2a14.01572 14.01572 0 0 0 -14 14c.76887 18.57294 27.234 18.56753 28-.00011a14.01574 14.01574 0 0 0 -14-13.99989zm0 27a13.01505 13.01505 0 0 1 -13-13c.71446-17.24621 25.28817-17.24119 26 .0001a13.01506 13.01506 0 0 1 -13 12.9999zm-5.68359-7.2334h-2.58008a.49967.49967 0 0 1 -.5-.5c.0025-.66372.868-.47785 1.29-.5v-9.46194c-.3552.20779-.96838.78411-1.30957.23929a.4987.4987 0 0 1 .15429-.68946l1.38769-.88084a.503.503 0 0 1 .76759.42186v10.37109h.79a.50009.50009 0 0 1 .00008 1zm7.20312-8.56445a3.30715 3.30715 0 1 0 -5.03424 2.80755 3.307 3.307 0 1 0 3.45453 0 3.29864 3.29864 0 0 0 1.57971-2.80755zm-1 5.61426a2.30728 2.30728 0 0 1 -4.61426-.00007 2.30728 2.30728 0 0 1 4.61426.00007zm-2.30664-3.30664a2.30727 2.30727 0 0 1 .00007-4.61426 2.30727 2.30727 0 0 1 -.00007 4.61426zm10.14844-2.1543h-1.97852v1.97753a.5.5 0 1 1 -1 0v-1.97753h-1.97851a.5.5 0 0 1 0-1h1.97851v-1.97847a.5.5 0 0 1 1 0v1.97852h1.97852a.5001.5001 0 0 1 0 .99995z" fill="url(#linear-gradient)"/></svg>