<!-- icon666.com - MILLIONS vector ICONS FREE --><svg xmlns="http://www.w3.org/2000/svg" xmlns:xlink="http://www.w3.org/1999/xlink" version="1.1" id="Capa_1" x="0px" y="0px" viewBox="0 0 494.237 494.237" style="enable-background:new 0 0 494.237 494.237;" xml:space="preserve"><linearGradient id="SVGID_1_" gradientUnits="userSpaceOnUse" x1="19.9973" y1="611.8129" x2="19.9973" y2="518.6829" gradientTransform="matrix(5.2245 0 0 -5.2245 244.5203 3196.4102)"><stop offset="0" style="stop-color:#24ac46"/><stop offset="1" style="stop-color:#00eba4"/></linearGradient><path style="fill:url(#SVGID_1_);" d="M438.335,247.118l-32.914-92.473c-6.269-17.763-9.404-37.094-9.404-55.902V15.673 C396.016,6.792,389.224,0,380.343,0h-62.694c-8.882,0-15.673,6.792-15.673,15.673v83.069c0,18.808-3.135,37.616-9.404,55.902 l-32.914,92.473c-9.927,28.212-15.151,57.992-15.151,88.816v116.506c0,23.51,18.286,41.796,41.796,41.796H411.69 c22.988,0,41.796-18.808,41.796-41.796V335.935C453.486,305.633,448.261,274.808,438.335,247.118z M333.322,31.347h31.347V47.02 h-31.347V31.347z M321.829,165.094c7.314-21.943,11.494-44.408,11.494-66.351V78.367h31.347v20.376 c0,22.465,4.18,45.453,11.494,66.351l13.584,38.139l-40.751,41.273l-40.751-41.273L321.829,165.094z M422.139,452.441 c0,5.747-4.702,10.449-10.449,10.449H286.302c-5.747,0-10.449-4.702-10.449-10.449V335.935c0-27.167,4.702-53.29,13.061-78.367 l7.837-21.42l41.273,41.796c3.135,3.135,6.792,4.702,10.971,4.702s8.359-1.567,10.971-4.702l41.273-41.796l7.837,21.42 c8.882,24.555,13.061,51.722,13.061,78.367V452.441z"/><g><linearGradient id="SVGID_2_" gradientUnits="userSpaceOnUse" x1="19.9973" y1="611.7629" x2="19.9973" y2="518.6329" gradientTransform="matrix(5.2245 0 0 -5.2245 244.5203 3196.4102)"><stop offset="0" style="stop-color:#24ac46"/><stop offset="1" style="stop-color:#00eba4"/></linearGradient><path style="fill:url(#SVGID_2_);" d="M390.792,309.812H307.2c-8.882,0-15.673,6.792-15.673,15.673v94.041 c0,8.882,6.792,15.673,15.673,15.673h83.592c8.882,0,15.673-6.792,15.673-15.673v-94.041 C406.465,316.604,399.673,309.812,390.792,309.812z M375.118,403.853h-52.245v-62.694h52.245V403.853z"/><linearGradient id="SVGID_3_" gradientUnits="userSpaceOnUse" x1="-25.0027" y1="611.7629" x2="-25.0027" y2="518.6329" gradientTransform="matrix(5.2245 0 0 -5.2245 244.5203 3196.4102)"><stop offset="0" style="stop-color:#24ac46"/><stop offset="1" style="stop-color:#00eba4"/></linearGradient><path style="fill:url(#SVGID_3_);" d="M171.363,99.788H56.424c-8.882,0-15.673,6.792-15.673,15.673v159.347 c0,35.004,24.555,64.261,57.469,71.576V462.89H77.322c-8.882,0-15.673,6.792-15.673,15.673c0,8.882,6.792,15.673,15.673,15.673 h73.143c8.882,0,15.673-6.792,15.673-15.673c0-8.882-6.792-15.673-15.673-15.673h-20.898V346.384 c32.914-7.314,57.469-36.571,57.469-71.576V115.461C187.037,106.58,180.245,99.788,171.363,99.788z M155.69,274.808 c0,22.988-18.808,41.796-41.796,41.796s-41.796-18.808-41.796-41.796v-33.959h83.592V274.808z M155.69,209.502H72.098v-78.367 h83.592V209.502z"/></g></svg>