<!-- icon666.com - MILLIONS vector ICONS FREE --><svg xmlns="http://www.w3.org/2000/svg" xmlns:xlink="http://www.w3.org/1999/xlink" version="1.1" id="Capa_1" x="0px" y="0px" viewBox="0 0 512 512" style="enable-background:new 0 0 512 512;" xml:space="preserve"><g><linearGradient id="SVGID_1_" gradientUnits="userSpaceOnUse" x1="0.7442" y1="636.6069" x2="0.7442" y2="577.5709" gradientTransform="matrix(8.5333 0 0 -8.5333 369.1333 5433.2671)"><stop offset="0" style="stop-color:#c1b1d5"/><stop offset="0.129" style="stop-color:#c195a1"/><stop offset="0.343" style="stop-color:#D9659B"/><stop offset="0.616" style="stop-color:#B070BF"/><stop offset="0.934" style="stop-color:#777FF0"/><stop offset="1" style="stop-color:#6A82FB"/></linearGradient><path style="fill:url(#SVGID_1_);" d="M298.684,512h153.6c4.71,0,8.533-3.823,8.533-8.533V315.733 c-0.034-0.256-0.085-0.512-0.154-0.768c-0.725-41.438-13.338-81.801-36.335-116.284l-14.711-22.042V8.533 c0-4.71-3.823-8.533-8.533-8.533h-51.2c-4.71,0-8.533,3.823-8.533,8.533V176.64l-14.711,22.067 c-22.989,34.475-35.601,74.829-36.335,116.258c-0.068,0.256-0.119,0.512-0.154,0.768v187.733 C290.15,508.177,293.965,512,298.684,512z M307.217,494.933V460.8H443.75v34.133H307.217z M307.217,324.267h56.201l40.166,40.166 c3.328,3.328,8.738,3.328,12.066,0l28.1-28.1v107.401H307.217V324.267z M387.55,324.267h44.134l-22.067,22.067L387.55,324.267z M358.417,102.4h34.133v73.267l-17.067,17.067l-17.067-17.067V102.4z M392.55,85.333h-34.133V68.267h34.133V85.333z M392.55,17.067 V51.2h-34.133V17.067H392.55z M340.838,208.154l10.368-15.556l18.244,18.236c3.328,3.328,8.738,3.328,12.066,0l18.244-18.236 l10.368,15.556c19.669,29.474,31.121,63.667,33.178,99.046h-135.68C309.692,271.821,321.152,237.628,340.838,208.154z"/><linearGradient id="SVGID_2_" gradientUnits="userSpaceOnUse" x1="-4.2578" y1="636.6069" x2="-4.2578" y2="577.5709" gradientTransform="matrix(8.5333 0 0 -8.5333 369.1333 5433.2671)"><stop offset="0" style="stop-color:#c1b1d5"/><stop offset="0.129" style="stop-color:#c195a1"/><stop offset="0.343" style="stop-color:#D9659B"/><stop offset="0.616" style="stop-color:#B070BF"/><stop offset="0.934" style="stop-color:#777FF0"/><stop offset="1" style="stop-color:#6A82FB"/></linearGradient><rect x="324.267" y="409.6" style="fill:url(#SVGID_2_);" width="17.067" height="17.067"/><linearGradient id="SVGID_3_" gradientUnits="userSpaceOnUse" x1="-34.256" y1="636.6069" x2="-34.256" y2="577.5709" gradientTransform="matrix(8.5333 0 0 -8.5333 369.1333 5433.2671)"><stop offset="0" style="stop-color:#c1b1d5"/><stop offset="0.129" style="stop-color:#c195a1"/><stop offset="0.343" style="stop-color:#D9659B"/><stop offset="0.616" style="stop-color:#B070BF"/><stop offset="0.934" style="stop-color:#777FF0"/><stop offset="1" style="stop-color:#6A82FB"/></linearGradient><path style="fill:url(#SVGID_3_);" d="M25.83,258.927l5.513,66.193c1.843,20.343,16.896,37.035,36.941,40.96v128.853H25.617V512 h102.4v-17.067H85.35V366.08c20.045-3.925,35.098-20.617,36.941-40.96l5.862-70.34l0,0l8.397-100.471 c0.393-4.693-3.098-8.823-7.799-9.216c-0.247-0.017-0.486-0.026-0.734-0.026h-102.4c-4.719-0.017-8.55,3.789-8.567,8.508 c0,0.247,0.009,0.495,0.026,0.734l8.747,104.602v0.017H25.83z M76.817,349.867c-14.822-0.085-27.145-11.426-28.459-26.189 l-4.267-51.686c3.26,0.734,6.605,1.092,9.95,1.075c10.24,0.111,20.164-3.533,27.895-10.24c4.779-4.471,11.102-6.921,17.647-6.827 c3.866-0.119,7.697,0.725,11.145,2.475l-5.436,65.203C103.979,338.449,91.639,349.79,76.817,349.867z M118.741,162.133 l-6.562,78.737c-4.079-1.297-8.337-1.946-12.612-1.937c-10.231-0.102-20.139,3.541-27.87,10.24 c-4.779,4.471-11.102,6.912-17.638,6.827c-4.028,0.137-8.013-0.802-11.554-2.731l-7.612-91.136H118.741z"/><linearGradient id="SVGID_4_" gradientUnits="userSpaceOnUse" x1="-18.2558" y1="636.6069" x2="-18.2558" y2="577.5709" gradientTransform="matrix(8.5333 0 0 -8.5333 369.1333 5433.2671)"><stop offset="0" style="stop-color:#c1b1d5"/><stop offset="0.129" style="stop-color:#c195a1"/><stop offset="0.343" style="stop-color:#D9659B"/><stop offset="0.616" style="stop-color:#B070BF"/><stop offset="0.934" style="stop-color:#777FF0"/><stop offset="1" style="stop-color:#6A82FB"/></linearGradient><path style="fill:url(#SVGID_4_);" d="M270.831,147.823c-1.621-1.758-3.9-2.756-6.281-2.756h-102.4 c-4.71-0.017-8.55,3.789-8.559,8.508c0,0.247,0.009,0.495,0.026,0.734l8.721,104.602l0,0l5.513,66.167 c1.826,20.369,16.896,37.086,36.966,41.003v128.853H162.15V512h102.4v-17.067h-42.667V366.08 c20.045-3.925,35.098-20.617,36.941-40.96l5.862-70.34l0,0l8.397-100.471C273.271,151.927,272.452,149.572,270.831,147.823z M255.275,162.133l-6.562,78.737c-4.079-1.297-8.337-1.946-12.612-1.937c-10.231-0.102-20.139,3.541-27.87,10.24 c-4.779,4.471-11.102,6.912-17.638,6.827c-4.028,0.137-8.013-0.802-11.554-2.731l-7.612-91.136H255.275z M213.35,349.867 c-14.822-0.085-27.145-11.426-28.459-26.189l-4.267-51.686c3.268,0.734,6.605,1.092,9.95,1.075 c10.24,0.111,20.164-3.533,27.895-10.24c4.779-4.471,11.102-6.921,17.647-6.827c3.866-0.119,7.697,0.725,11.145,2.475 l-5.436,65.203C240.512,338.449,228.173,349.79,213.35,349.867z"/><linearGradient id="SVGID_5_" gradientUnits="userSpaceOnUse" x1="-33.2578" y1="636.6069" x2="-33.2578" y2="577.5709" gradientTransform="matrix(8.5333 0 0 -8.5333 369.1333 5433.2671)"><stop offset="0" style="stop-color:#c1b1d5"/><stop offset="0.129" style="stop-color:#c195a1"/><stop offset="0.343" style="stop-color:#D9659B"/><stop offset="0.616" style="stop-color:#B070BF"/><stop offset="0.934" style="stop-color:#777FF0"/><stop offset="1" style="stop-color:#6A82FB"/></linearGradient><rect x="76.8" y="25.6" style="fill:url(#SVGID_5_);" width="17.067" height="17.067"/><linearGradient id="SVGID_6_" gradientUnits="userSpaceOnUse" x1="-30.2578" y1="636.6069" x2="-30.2578" y2="577.5709" gradientTransform="matrix(8.5333 0 0 -8.5333 369.1333 5433.2671)"><stop offset="0" style="stop-color:#c1b1d5"/><stop offset="0.129" style="stop-color:#c195a1"/><stop offset="0.343" style="stop-color:#D9659B"/><stop offset="0.616" style="stop-color:#B070BF"/><stop offset="0.934" style="stop-color:#777FF0"/><stop offset="1" style="stop-color:#6A82FB"/></linearGradient><rect x="102.4" y="93.867" style="fill:url(#SVGID_6_);" width="17.067" height="17.067"/><linearGradient id="SVGID_7_" gradientUnits="userSpaceOnUse" x1="-38.2578" y1="636.6069" x2="-38.2578" y2="577.5709" gradientTransform="matrix(8.5333 0 0 -8.5333 369.1333 5433.2671)"><stop offset="0" style="stop-color:#c1b1d5"/><stop offset="0.129" style="stop-color:#c195a1"/><stop offset="0.343" style="stop-color:#D9659B"/><stop offset="0.616" style="stop-color:#B070BF"/><stop offset="0.934" style="stop-color:#777FF0"/><stop offset="1" style="stop-color:#6A82FB"/></linearGradient><rect x="34.133" y="76.8" style="fill:url(#SVGID_7_);" width="17.067" height="17.067"/><linearGradient id="SVGID_8_" gradientUnits="userSpaceOnUse" x1="-17.2578" y1="636.6069" x2="-17.2578" y2="577.5709" gradientTransform="matrix(8.5333 0 0 -8.5333 369.1333 5433.2671)"><stop offset="0" style="stop-color:#c1b1d5"/><stop offset="0.129" style="stop-color:#c195a1"/><stop offset="0.343" style="stop-color:#D9659B"/><stop offset="0.616" style="stop-color:#B070BF"/><stop offset="0.934" style="stop-color:#777FF0"/><stop offset="1" style="stop-color:#6A82FB"/></linearGradient><rect x="213.333" y="42.667" style="fill:url(#SVGID_8_);" width="17.067" height="17.067"/><linearGradient id="SVGID_9_" gradientUnits="userSpaceOnUse" x1="-14.2578" y1="636.6069" x2="-14.2578" y2="577.5709" gradientTransform="matrix(8.5333 0 0 -8.5333 369.1333 5433.2671)"><stop offset="0" style="stop-color:#c1b1d5"/><stop offset="0.129" style="stop-color:#c195a1"/><stop offset="0.343" style="stop-color:#D9659B"/><stop offset="0.616" style="stop-color:#B070BF"/><stop offset="0.934" style="stop-color:#777FF0"/><stop offset="1" style="stop-color:#6A82FB"/></linearGradient><rect x="238.933" y="110.933" style="fill:url(#SVGID_9_);" width="17.067" height="17.067"/><linearGradient id="SVGID_10_" gradientUnits="userSpaceOnUse" x1="-22.2578" y1="636.6069" x2="-22.2578" y2="577.5709" gradientTransform="matrix(8.5333 0 0 -8.5333 369.1333 5433.2671)"><stop offset="0" style="stop-color:#c1b1d5"/><stop offset="0.129" style="stop-color:#c195a1"/><stop offset="0.343" style="stop-color:#D9659B"/><stop offset="0.616" style="stop-color:#B070BF"/><stop offset="0.934" style="stop-color:#777FF0"/><stop offset="1" style="stop-color:#6A82FB"/></linearGradient><rect x="170.667" y="93.867" style="fill:url(#SVGID_10_);" width="17.067" height="17.067"/><linearGradient id="SVGID_11_" gradientUnits="userSpaceOnUse" x1="-38.2578" y1="636.6069" x2="-38.2578" y2="577.5709" gradientTransform="matrix(8.5333 0 0 -8.5333 369.1333 5433.2671)"><stop offset="0" style="stop-color:#c1b1d5"/><stop offset="0.129" style="stop-color:#c195a1"/><stop offset="0.343" style="stop-color:#D9659B"/><stop offset="0.616" style="stop-color:#B070BF"/><stop offset="0.934" style="stop-color:#777FF0"/><stop offset="1" style="stop-color:#6A82FB"/></linearGradient><rect x="34.133" y="384" style="fill:url(#SVGID_11_);" width="17.067" height="59.733"/><linearGradient id="SVGID_12_" gradientUnits="userSpaceOnUse" x1="-38.2578" y1="636.6069" x2="-38.2578" y2="577.5709" gradientTransform="matrix(8.5333 0 0 -8.5333 369.1333 5433.2671)"><stop offset="0" style="stop-color:#c1b1d5"/><stop offset="0.129" style="stop-color:#c195a1"/><stop offset="0.343" style="stop-color:#D9659B"/><stop offset="0.616" style="stop-color:#B070BF"/><stop offset="0.934" style="stop-color:#777FF0"/><stop offset="1" style="stop-color:#6A82FB"/></linearGradient><rect x="34.133" y="460.8" style="fill:url(#SVGID_12_);" width="17.067" height="17.067"/><linearGradient id="SVGID_13_" gradientUnits="userSpaceOnUse" x1="12.9597" y1="636.6069" x2="12.9597" y2="577.5709" gradientTransform="matrix(8.5333 0 0 -8.5333 369.1333 5433.2671)"><stop offset="0" style="stop-color:#c1b1d5"/><stop offset="0.129" style="stop-color:#c195a1"/><stop offset="0.343" style="stop-color:#D9659B"/><stop offset="0.616" style="stop-color:#B070BF"/><stop offset="0.934" style="stop-color:#777FF0"/><stop offset="1" style="stop-color:#6A82FB"/></linearGradient><path style="fill:url(#SVGID_13_);" d="M477.884,348.706v103.561h17.067V348.706c0-34.978-4.71-69.794-14.012-103.509l-16.444,4.54 C473.378,281.975,477.884,315.264,477.884,348.706z"/><linearGradient id="SVGID_14_" gradientUnits="userSpaceOnUse" x1="13.7422" y1="636.6069" x2="13.7422" y2="577.5709" gradientTransform="matrix(8.5333 0 0 -8.5333 369.1333 5433.2671)"><stop offset="0" style="stop-color:#c1b1d5"/><stop offset="0.129" style="stop-color:#c195a1"/><stop offset="0.343" style="stop-color:#D9659B"/><stop offset="0.616" style="stop-color:#B070BF"/><stop offset="0.934" style="stop-color:#777FF0"/><stop offset="1" style="stop-color:#6A82FB"/></linearGradient><rect x="477.867" y="469.333" style="fill:url(#SVGID_14_);" width="17.067" height="17.067"/></g></svg>