<!-- icon666.com - MILLIONS vector ICONS FREE --><svg enable-background="new 0 0 512 512" viewBox="0 0 512 512" xmlns="http://www.w3.org/2000/svg" xmlns:xlink="http://www.w3.org/1999/xlink"><linearGradient id="SVGID_1_" gradientUnits="userSpaceOnUse" x1="12.236" x2="397.254" y1="477.327" y2="92.309"><stop offset="0" stop-color="#f533d1"></stop><stop offset=".344" stop-color="#f064f5"></stop><stop offset=".6365" stop-color="#ec54f7"></stop><stop offset=".8603" stop-color="#fa4bf4"></stop><stop offset=".9888" stop-color="#fa46ee"></stop></linearGradient><g id="_x30_6_Count_Calories"><path d="m54.387 501.34c1.089 0 262.366-.034 263.525-.034 17.271 0 33.78-4.96 48-14.379 14.221 9.419 30.729 14.379 48 14.379 50.586 0 87.56-110.909 87.56-158.048 0-48.242-39.28-87.488-87.56-87.488-14.995 0-29.41 3.751-42.258 10.901 1.954-32.708 19.725-53.345 54.32-54.412 3.201-.098 5.715-2.771 5.617-5.972s-2.88-5.783-5.972-5.617c-41.406 1.272-63.632 27.64-65.602 65.923-5.921-3.281-12.181-5.808-18.67-7.609v-204.465c0-24.183-19.706-43.859-43.931-43.859h-243.029c-24.183 0-43.859 19.676-43.859 43.859v402.962c0 24.183 19.676 43.859 43.859 43.859zm197.481-68.831h-42.698c-3.798 0-6.886-3.092-6.886-6.89v-77.741c0-3.798 3.088-6.89 6.886-6.89h21.227c-.702 27.178 10.792 66.544 21.471 91.521zm-3.713-142.095h-38.985c-3.798 0-6.886-3.092-6.886-6.89v-77.744c0-3.798 3.088-6.89 6.886-6.89h77.744c3.798 0 6.89 3.092 6.89 6.89v53.361c-17.716 5.022-34.24 16.137-45.649 31.273zm241.72 52.844c0 45.75-36.724 146.451-75.963 146.451-16.195 0-31.609-5.025-44.573-14.527-2.039-1.495-4.817-1.495-6.856 0-12.964 9.502-28.377 14.527-44.573 14.527-40.657 0-75.947-106.261-75.947-146.485 0-42.334 34.663-75.857 75.947-75.857 15.055 0 31.098 4.649 44.573 14.527 1.818 1.335 4.697 1.586 6.856 0 12.964-9.502 28.377-14.527 44.573-14.527 41.885 0 75.963 34.044 75.963 75.891zm-467.75-288.739c0-17.788 14.474-32.262 32.262-32.262h243.03c17.83 0 32.334 14.474 32.334 32.262v202.009c-9.092-1.27-16.787-.882-24.349.209v-50.957c0-10.193-8.294-18.487-18.487-18.487h-77.745c-10.193 0-18.483 8.294-18.483 18.487v77.744c0 10.193 8.29 18.487 18.483 18.487h31.562c-4.375 8.139-7.453 16.675-9.171 27.381h-22.391c-10.193 0-18.483 8.294-18.483 18.487v77.741c0 10.193 8.29 18.487 18.483 18.487h47.983c9.098 18.713 20.172 35.222 32.707 45.637h-235.473c-17.788 0-32.262-14.474-32.262-32.262zm40.299 105.393h227.057c9.185 0 16.656-7.471 16.656-16.652v-80.704c0-9.185-7.471-16.656-16.656-16.656h-227.057c-9.185 0-16.656 7.471-16.656 16.656v80.704c0 9.181 7.471 16.652 16.656 16.652zm-5.058-97.356c0-2.79 2.269-5.059 5.059-5.059h227.057c2.79 0 5.059 2.269 5.059 5.059v80.704c0 2.786-2.269 5.055-5.059 5.055h-227.058c-2.79 0-5.059-2.269-5.059-5.055v-80.704zm6.912 239.455h77.699c10.208 0 18.509-8.301 18.509-18.509v-77.699c0-10.208-8.301-18.509-18.509-18.509h-77.699c-10.208 0-18.509 8.301-18.509 18.509v77.699c-.001 10.207 8.301 18.509 18.509 18.509zm-6.912-96.209c0-3.813 3.099-6.912 6.912-6.912h77.699c3.813 0 6.912 3.099 6.912 6.912v77.699c0 3.813-3.099 6.912-6.912 6.912h-77.699c-3.813 0-6.912-3.099-6.912-6.912zm6.912 238.304h77.699c10.208 0 18.509-8.301 18.509-18.509v-77.699c0-10.208-8.301-18.509-18.509-18.509h-77.699c-10.208 0-18.509 8.301-18.509 18.509v77.699c-.001 10.207 8.301 18.509 18.509 18.509zm-6.912-96.209c0-3.813 3.099-6.912 6.912-6.912h77.699c3.813 0 6.912 3.099 6.912 6.912v77.699c0 3.813-3.099 6.912-6.912 6.912h-77.699c-3.813 0-6.912-3.099-6.912-6.912zm13.801-103.245c0-3.201 2.597-5.799 5.799-5.799h20.363v-20.363c0-3.201 2.597-5.799 5.799-5.799s5.799 2.597 5.799 5.799v20.363h20.363c3.201 0 5.799 2.597 5.799 5.799 0 3.201-2.597 5.799-5.799 5.799h-20.363v20.363c0 3.201-2.597 5.799-5.799 5.799s-5.799-2.597-5.799-5.799v-20.363h-20.363c-3.201 0-5.799-2.598-5.799-5.799zm168.751-20.219c0-3.201 2.597-5.799 5.799-5.799h4.64c3.201 0 5.799 2.597 5.799 5.799 0 3.201-2.597 5.799-5.799 5.799h-4.64c-3.202-.001-5.799-2.598-5.799-5.799zm10.438 46.237h-4.64c-3.201 0-5.799-2.597-5.799-5.799s2.597-5.799 5.799-5.799h4.64c3.201 0 5.799 2.597 5.799 5.799s-2.597 5.799-5.799 5.799zm21.375-20.393h-47.389c-3.201 0-5.799-2.597-5.799-5.799s2.597-5.799 5.799-5.799h47.389c3.201 0 5.799 2.597 5.799 5.799s-2.598 5.799-5.799 5.799zm-191.201 150.872 14.4-14.4-14.4-14.4c-2.265-2.265-2.265-5.934 0-8.2 2.265-2.265 5.934-2.265 8.2 0l14.4 14.4 14.4-14.4c2.265-2.265 5.934-2.265 8.2 0 2.265 2.265 2.265 5.934 0 8.2l-14.4 14.4 14.4 14.4c2.265 2.265 2.265 5.934 0 8.2-1.133 1.133-2.616 1.699-4.1 1.699s-2.967-.566-4.1-1.699l-14.4-14.4-14.4 14.4c-1.133 1.133-2.616 1.699-4.1 1.699s-2.967-.566-4.1-1.699c-2.266-2.266-2.266-5.935 0-8.2zm239.605-104.601c.242 3.194-2.152 5.98-5.342 6.225-20.106 1.529-36.215 17.837-37.472 37.936-.193 3.073-2.745 5.436-5.783 5.436-.121 0-.242-.004-.366-.011-3.194-.2-5.625-2.952-5.425-6.15 1.616-25.841 22.322-46.811 48.163-48.778 3.232-.275 5.98 2.149 6.225 5.342z" fill="url(#SVGID_1_)"></path></g></svg>