<!-- icon666.com - MILLIONS vector ICONS FREE --><svg xmlns="http://www.w3.org/2000/svg" xmlns:xlink="http://www.w3.org/1999/xlink" version="1.1" id="Capa_1" x="0px" y="0px" viewBox="0 0 480 480" style="enable-background:new 0 0 480 480;" xml:space="preserve"><linearGradient id="SVGID_1_" gradientUnits="userSpaceOnUse" x1="-58.716" y1="560.6251" x2="21.064" y2="560.6251" gradientTransform="matrix(8 0 0 -8 455.0001 4617.0005)"><stop offset="0" style="stop-color:#E93E3A"/><stop offset="0.353" style="stop-color:#ED683C"/><stop offset="0.719" style="stop-color:#F3903F"/><stop offset="1" style="stop-color:#FDC70C"/></linearGradient><path style="fill:url(#SVGID_1_);" d="M118.344,196h243.312c4.418-0.004,7.997-3.589,7.993-8.007c0-0.478-0.044-0.955-0.129-1.425 L350.4,81.136c-1.387-7.623-8.036-13.157-15.784-13.136H145.384c-7.75-0.02-14.401,5.518-15.784,13.144l-19.12,105.424 c-0.791,4.347,2.092,8.512,6.439,9.303C117.389,195.956,117.866,196,118.344,196L118.344,196z M145.384,84h189.24l17.448,96H127.928 L145.384,84z"/><g><linearGradient id="SVGID_2_" gradientUnits="userSpaceOnUse" x1="-58.716" y1="542.6251" x2="21.064" y2="542.6251" gradientTransform="matrix(8 0 0 -8 455.0001 4617.0005)"><stop offset="0" style="stop-color:#E93E3A"/><stop offset="0.353" style="stop-color:#ED683C"/><stop offset="0.719" style="stop-color:#F3903F"/><stop offset="1" style="stop-color:#FDC70C"/></linearGradient><path style="fill:url(#SVGID_2_);" d="M360,244c-17.673,0-32,14.327-32,32s14.327,32,32,32c17.673,0,32-14.327,32-32 S377.673,244,360,244z M360,292c-8.837,0-16-7.163-16-16s7.163-16,16-16s16,7.163,16,16S368.837,292,360,292z"/><linearGradient id="SVGID_3_" gradientUnits="userSpaceOnUse" x1="-58.716" y1="542.6251" x2="21.064" y2="542.6251" gradientTransform="matrix(8 0 0 -8 455.0001 4617.0005)"><stop offset="0" style="stop-color:#E93E3A"/><stop offset="0.353" style="stop-color:#ED683C"/><stop offset="0.719" style="stop-color:#F3903F"/><stop offset="1" style="stop-color:#FDC70C"/></linearGradient><path style="fill:url(#SVGID_3_);" d="M120,244c-17.673,0-32,14.327-32,32s14.327,32,32,32s32-14.327,32-32S137.673,244,120,244z M120,292c-8.837,0-16-7.163-16-16s7.163-16,16-16s16,7.163,16,16S128.837,292,120,292z"/><linearGradient id="SVGID_4_" gradientUnits="userSpaceOnUse" x1="-58.716" y1="542.6251" x2="21.064" y2="542.6251" gradientTransform="matrix(8 0 0 -8 455.0001 4617.0005)"><stop offset="0" style="stop-color:#E93E3A"/><stop offset="0.353" style="stop-color:#ED683C"/><stop offset="0.719" style="stop-color:#F3903F"/><stop offset="1" style="stop-color:#FDC70C"/></linearGradient><path style="fill:url(#SVGID_4_);" d="M304,244H176c-4.418,0-8,3.582-8,8v48c0,4.418,3.582,8,8,8h128c4.418,0,8-3.582,8-8v-48 C312,247.582,308.418,244,304,244z M296,260v8H184v-8H296z M184,292v-8h112v8H184z"/></g><linearGradient id="SVGID_5_" gradientUnits="userSpaceOnUse" x1="-58.716" y1="547.1251" x2="21.064" y2="547.1251" gradientTransform="matrix(8 0 0 -8 455.0001 4617.0005)"><stop offset="0" style="stop-color:#E93E3A"/><stop offset="0.353" style="stop-color:#ED683C"/><stop offset="0.719" style="stop-color:#F3903F"/><stop offset="1" style="stop-color:#FDC70C"/></linearGradient><path style="fill:url(#SVGID_5_);" d="M424,196h48c4.418,0,8-3.582,8-8v-32c0-4.418-3.582-8-8-8h-48c-4.418,0-8,3.582-8,8v8h-18.048 l-19.68-108.288C376.216,44.281,366.255,35.972,354.64,36H125.36c-11.607-0.033-21.564,8.266-23.624,19.688L82.048,164H64v-8 c0-4.418-3.582-8-8-8H8c-4.418,0-8,3.582-8,8v32c0,4.418,3.582,8,8,8h48c4.418,0,8-3.582,8-8v-8h15.136l-5.816,32H64 c-13.255,0-24,10.745-24,24v96H8c-4.418,0-8,3.582-8,8v32c0,4.418,3.582,8,8,8h32v56c0,4.418,3.582,8,8,8h64c4.418,0,8-3.582,8-8 v-56h240v56c0,4.418,3.582,8,8,8h64c4.418,0,8-3.582,8-8v-56h32c4.418,0,8-3.582,8-8v-32c0-4.418-3.582-8-8-8h-32v-96 c0-13.255-10.745-24-24-24h-9.32l-5.816-32H416v8C416,192.418,419.582,196,424,196L424,196z M432,164h32v16h-32V164z M48,180H16v-16 h32V180z M104,428H56v-48h48V428z M424,428h-48v-48h48V428z M464,364H16v-16h448V364z M416,228c4.418,0,8,3.582,8,8v96H56v-96 c0-4.418,3.582-8,8-8h16c3.863-0.003,7.172-2.767,7.864-6.568l29.6-162.912c0.714-3.794,4.036-6.536,7.896-6.52h229.28 c3.865-0.01,7.185,2.744,7.888,6.544l29.6,162.888c0.692,3.804,4.006,6.569,7.872,6.568H416z"/></svg>