<!-- icon666.com - MILLIONS vector ICONS FREE --><svg version="1.1" id="Capa_1" xmlns="http://www.w3.org/2000/svg" xmlns:xlink="http://www.w3.org/1999/xlink" x="0px" y="0px" viewBox="0 0 511.999 511.999" style="enable-background:new 0 0 511.999 511.999;" xml:space="preserve"><linearGradient id="SVGID_1_" gradientUnits="userSpaceOnUse" x1="255.9036" y1="514.0437" x2="255.9036" y2="2.2057" gradientTransform="matrix(1.0003 0 0 -1.0003 0.0154 514.2054)"><stop offset="0" style="stop-color:#4fb356"></stop><stop offset="1" style="stop-color:#7ab35c"></stop></linearGradient><path style="fill:url(#SVGID_1_);" d="M472.275,130.185c-0.032-0.019-0.064-0.039-0.096-0.058L255.999,0L39.828,130.122 c-0.039,0.023-0.077,0.047-0.116,0.07l-9.783,5.889v236.544L256,511.999l226.071-139.374V136.081L472.275,130.185z M423.271,147.39 L255.999,248.078L88.727,147.39L255.999,46.703L423.271,147.39z M69.94,182.784l166.052,99.953V452.66L69.94,350.289 C69.94,350.289,69.94,182.784,69.94,182.784z M276.005,452.66V282.738l166.052-99.953v167.505L276.005,452.66z M235.992,112.379 c0-11.049,8.957-20.006,20.006-20.006c11.049,0,20.006,8.957,20.006,20.006s-8.957,20.006-20.006,20.006 S235.992,123.428,235.992,112.379z M136.961,328.447c0,11.049-8.957,20.006-20.006,20.006s-20.006-8.957-20.006-20.006 s8.957-20.006,20.006-20.006S136.961,317.398,136.961,328.447z M192.979,294.437c0,11.049-8.957,20.006-20.006,20.006 c-11.049,0-20.006-8.957-20.006-20.006s8.957-20.006,20.006-20.006C184.022,274.43,192.979,283.387,192.979,294.437z M415.049,328.447c0,11.049-8.957,20.006-20.006,20.006s-20.006-8.957-20.006-20.006s8.957-20.006,20.006-20.006 S415.049,317.398,415.049,328.447z M359.031,294.437c0,11.049-8.957,20.006-20.006,20.006c-11.049,0-20.006-8.957-20.006-20.006 s8.957-20.006,20.006-20.006C350.074,274.43,359.031,283.387,359.031,294.437z M276.005,182.401 c0,11.049-8.957,20.006-20.006,20.006s-20.006-8.957-20.006-20.006c0-11.049,8.957-20.006,20.006-20.006 C267.048,162.395,276.005,171.352,276.005,182.401z"></path></svg>