<!-- icon666.com - MILLIONS vector ICONS FREE --><svg viewBox="0 0 64 64" xmlns="http://www.w3.org/2000/svg" xmlns:xlink="http://www.w3.org/1999/xlink"><linearGradient id="New_Gradient_Swatch_3" gradientUnits="userSpaceOnUse" x1="32" x2="32" y1="63.221" y2="5.041"><stop offset="0" stop-color="#006df0"></stop><stop offset="1" stop-color="#00e7f0"></stop></linearGradient><linearGradient id="New_Gradient_Swatch_3-2" x1="13" x2="13" xlink:href="#New_Gradient_Swatch_3" y1="63.221" y2="5.041"></linearGradient><linearGradient id="New_Gradient_Swatch_3-3" x1="21" x2="21" xlink:href="#New_Gradient_Swatch_3" y1="63.221" y2="5.041"></linearGradient><linearGradient id="New_Gradient_Swatch_3-4" x1="29" x2="29" xlink:href="#New_Gradient_Swatch_3" y1="63.221" y2="5.041"></linearGradient><linearGradient id="New_Gradient_Swatch_3-5" x1="37" x2="37" xlink:href="#New_Gradient_Swatch_3" y1="63.221" y2="5.041"></linearGradient><linearGradient id="New_Gradient_Swatch_3-6" x1="45" x2="45" xlink:href="#New_Gradient_Swatch_3" y1="63.221" y2="5.041"></linearGradient><linearGradient id="New_Gradient_Swatch_3-17" x1="14.25" x2="14.25" xlink:href="#New_Gradient_Swatch_3" y1="63.221" y2="5.041"></linearGradient><g id="calendar-date-time-day-event"><path d="m53.98 8.81a2.989 2.989 0 0 0 -2.98-2.81h-4v-1a3 3 0 0 0 -6 0v1h-4v-1a3 3 0 0 0 -6 0v1h-4v-1a3 3 0 0 0 -6 0v1h-4v-1a3 3 0 0 0 -6 0v1h-4a3.009 3.009 0 0 0 -3 3v33.1a12.986 12.986 0 0 0 21.94 13.9h25.06a3.009 3.009 0 0 0 3-3v-1.06l6.99.06h.01a1 1 0 0 0 .98-1.19zm-10.98-3.81a1 1 0 0 1 2 0v4a1 1 0 0 1 -2 0zm-10 0a1 1 0 0 1 2 0v4a1 1 0 0 1 -2 0zm-10 0a1 1 0 0 1 2 0v4a1 1 0 0 1 -2 0zm-10 0a1 1 0 0 1 2 0v4a1 1 0 0 1 -2 0zm12 45h.95a11.089 11.089 0 0 1 -.97 3.6l-.82-.47a1 1 0 1 0 -1 1.74l.82.47a11.406 11.406 0 0 1 -2.64 2.64l-.47-.82a1 1 0 0 0 -1.74 1l.47.82a11.089 11.089 0 0 1 -3.6.97v-.95a1 1 0 0 0 -2 0v.95a11.089 11.089 0 0 1 -3.6-.97l.47-.82a1 1 0 1 0 -1.74-1l-.47.82a11.406 11.406 0 0 1 -2.64-2.64l.82-.47a1 1 0 0 0 -1-1.74l-.82.47a11.089 11.089 0 0 1 -.97-3.6h.95a1 1 0 0 0 0-2h-.95a11.089 11.089 0 0 1 .97-3.6l.82.47a1 1 0 0 0 1-1.74l-.82-.47a11.406 11.406 0 0 1 2.64-2.64l.47.82a1 1 0 1 0 1.74-1l-.47-.82a11.089 11.089 0 0 1 3.6-.97v.95a1 1 0 0 0 2 0v-.95a11.089 11.089 0 0 1 3.6.97l-.47.82a1 1 0 0 0 1.74 1l.47-.82a11.406 11.406 0 0 1 2.64 2.64l-.82.47a1 1 0 0 0 1 1.74l.82-.47a11.089 11.089 0 0 1 .97 3.6h-.95a1 1 0 0 0 0 2zm27 3a1 1 0 0 1 -1 1h-24a13.006 13.006 0 0 0 .95-4h3.05a1 1 0 0 0 1-1v-4a1 1 0 0 0 -1-1h-4a13.207 13.207 0 0 0 -4.71-5.76 12.962 12.962 0 0 0 -16.29 1.4v-23.64h46zm-24.36-7h2.36v2h-2.05a13.222 13.222 0 0 0 -.31-2zm24.36-32h-46v-5a1 1 0 0 1 1-1h4v1a3 3 0 0 0 6 0v-1h4v1a3 3 0 0 0 6 0v-1h4v1a3 3 0 0 0 6 0v-1h4v1a3 3 0 0 0 6 0v-1h4a1 1 0 0 1 1 1zm2 35.94v-30.35l5.79 30.4z" fill="url(#New_Gradient_Swatch_3)"></path><path d="m11 26h4a1 1 0 0 0 1-1v-4a1 1 0 0 0 -1-1h-4a1 1 0 0 0 -1 1v4a1 1 0 0 0 1 1zm1-4h2v2h-2z" fill="url(#New_Gradient_Swatch_3-2)"></path><path d="m19 26h4a1 1 0 0 0 1-1v-4a1 1 0 0 0 -1-1h-4a1 1 0 0 0 -1 1v4a1 1 0 0 0 1 1zm1-4h2v2h-2z" fill="url(#New_Gradient_Swatch_3-3)"></path><path d="m27 26h4a1 1 0 0 0 1-1v-4a1 1 0 0 0 -1-1h-4a1 1 0 0 0 -1 1v4a1 1 0 0 0 1 1zm1-4h2v2h-2z" fill="url(#New_Gradient_Swatch_3-4)"></path><path d="m35 26h4a1 1 0 0 0 1-1v-4a1 1 0 0 0 -1-1h-4a1 1 0 0 0 -1 1v4a1 1 0 0 0 1 1zm1-4h2v2h-2z" fill="url(#New_Gradient_Swatch_3-5)"></path><path d="m43 26h4a1 1 0 0 0 1-1v-4a1 1 0 0 0 -1-1h-4a1 1 0 0 0 -1 1v4a1 1 0 0 0 1 1zm1-4h2v2h-2z" fill="url(#New_Gradient_Swatch_3-6)"></path><path d="m11 34h4a1 1 0 0 0 1-1v-4a1 1 0 0 0 -1-1h-4a1 1 0 0 0 -1 1v4a1 1 0 0 0 1 1zm1-4h2v2h-2z" fill="url(#New_Gradient_Swatch_3-2)"></path><path d="m19 34h4a1 1 0 0 0 1-1v-4a1 1 0 0 0 -1-1h-4a1 1 0 0 0 -1 1v4a1 1 0 0 0 1 1zm1-4h2v2h-2z" fill="url(#New_Gradient_Swatch_3-3)"></path><path d="m27 34h4a1 1 0 0 0 1-1v-4a1 1 0 0 0 -1-1h-4a1 1 0 0 0 -1 1v4a1 1 0 0 0 1 1zm1-4h2v2h-2z" fill="url(#New_Gradient_Swatch_3-4)"></path><path d="m35 34h4a1 1 0 0 0 1-1v-4a1 1 0 0 0 -1-1h-4a1 1 0 0 0 -1 1v4a1 1 0 0 0 1 1zm1-4h2v2h-2z" fill="url(#New_Gradient_Swatch_3-5)"></path><path d="m43 34h4a1 1 0 0 0 1-1v-4a1 1 0 0 0 -1-1h-4a1 1 0 0 0 -1 1v4a1 1 0 0 0 1 1zm1-4h2v2h-2z" fill="url(#New_Gradient_Swatch_3-6)"></path><path d="m27 42h4a1 1 0 0 0 1-1v-4a1 1 0 0 0 -1-1h-4a1 1 0 0 0 -1 1v4a1 1 0 0 0 1 1zm1-4h2v2h-2z" fill="url(#New_Gradient_Swatch_3-4)"></path><path d="m35 42h4a1 1 0 0 0 1-1v-4a1 1 0 0 0 -1-1h-4a1 1 0 0 0 -1 1v4a1 1 0 0 0 1 1zm1-4h2v2h-2z" fill="url(#New_Gradient_Swatch_3-5)"></path><path d="m43 42h4a1 1 0 0 0 1-1v-4a1 1 0 0 0 -1-1h-4a1 1 0 0 0 -1 1v4a1 1 0 0 0 1 1zm1-4h2v2h-2z" fill="url(#New_Gradient_Swatch_3-6)"></path><path d="m35 50h4a1 1 0 0 0 1-1v-4a1 1 0 0 0 -1-1h-4a1 1 0 0 0 -1 1v4a1 1 0 0 0 1 1zm1-4h2v2h-2z" fill="url(#New_Gradient_Swatch_3-5)"></path><path d="m43 50h4a1 1 0 0 0 1-1v-4a1 1 0 0 0 -1-1h-4a1 1 0 0 0 -1 1v4a1 1 0 0 0 1 1zm1-4h2v2h-2z" fill="url(#New_Gradient_Swatch_3-6)"></path><path d="m16 47.278v-5.278a1 1 0 0 0 -2 0v5.278a1.967 1.967 0 0 0 -.727 2.713l-1.639 2.839a1 1 0 1 0 1.732 1l1.634-2.83a1.994 1.994 0 0 0 1-3.722z" fill="url(#New_Gradient_Swatch_3-17)"></path></g></svg>