<!-- icon666.com - MILLIONS vector ICONS FREE --><svg viewBox="0 0 64 64" xmlns="http://www.w3.org/2000/svg" xmlns:xlink="http://www.w3.org/1999/xlink"><linearGradient id="linear-gradient" gradientUnits="userSpaceOnUse" x1="32" x2="32" y1="59.5" y2="4.5"><stop offset="0" stop-color="#fa8bff"></stop><stop offset="1" stop-color="#2bd2ff"></stop></linearGradient><g id="date-6" data-name="date"><path d="m13 11.5h1v-7h2v7h1v2h-4zm10 2h4v-2h-1v-7h-2v7h-1zm20 0h4v-2h-1v-7h-2v7h-1zm-10 0h4v-2h-1v-7h-2v7h-1zm1 16h4v-3h-4zm-23 20h4v-3h-4zm34 0h4v-3h-4zm-23 0h4v-3h-4zm38-38v48h-52v-4h-4v-35h52v35h-46v2h48v-44h-2v5h-52v-11h9v3h-1v4h6v-4h-1v-3h6v3h-1v4h6v-4h-1v-3h6v3h-1v4h6v-4h-1v-3h6v3h-1v4h6v-4h-1v-3h9v4zm-17 20h8v-7h-8zm5.58 6.5 2.1-1.67-1.25-1.56-2.43 1.94-2.38-2-1.28 1.54 2.08 1.75-2.1 1.67 1.25 1.56 2.43-1.94 2.38 2 1.28-1.54zm-5.58 13.5h8v-7h-8zm-11-20h8v-7h-8zm5.58 6.5 2.1-1.67-1.25-1.56-2.43 1.94-2.38-2-1.28 1.54 2.08 1.75-2.1 1.67 1.25 1.56 2.43-1.94 2.38 2 1.28-1.54zm-5.58 13.5h8v-7h-8zm-9.52-13.5-2.1 1.67 1.24 1.56 2.38-1.94 2.38 2 1.28-1.54-2.02-1.75 2.09-1.66-1.24-1.56-2.41 1.92-2.38-2-1.28 1.54zm-2.48 13.5h8v-7h-8zm-8.58-13.5-2.1 1.67 1.25 1.56 2.43-1.94 2.38 2 1.28-1.54-2.08-1.75 2.1-1.67-1.25-1.56-2.43 1.94-2.38-2-1.26 1.56zm-2.42 13.5h8v-7h-8zm25-2h4v-3h-4zm11-20h4v-3h-4z" fill="url(#linear-gradient)"></path></g></svg>