<!-- icon666.com - MILLIONS vector ICONS FREE --><svg viewBox="0 0 512 512" xmlns="http://www.w3.org/2000/svg" xmlns:xlink="http://www.w3.org/1999/xlink"><linearGradient id="a" gradientUnits="userSpaceOnUse" x1="26.22" x2="511.265" y1="493.78" y2="8.735" data-name="New Gradient Swatch 1"><stop offset="0" stop-color="#003f8a"></stop><stop offset=".518" stop-color="#00d7df"></stop><stop offset="1" stop-color="#006df0"></stop></linearGradient><linearGradient id="b" x1="-21.78" x2="463.265" xlink:href="#a" y1="445.78" y2="-39.265"></linearGradient><linearGradient id="c" x1="-65.78" x2="419.265" xlink:href="#a" y1="401.78" y2="-83.265"></linearGradient><linearGradient id="d" x1="66.22" x2="551.265" xlink:href="#a" y1="533.78" y2="48.735"></linearGradient><linearGradient id="e" x1="22.22" x2="507.265" xlink:href="#a" y1="489.78" y2="4.735"></linearGradient><linearGradient id="f" x1="-109.78" x2="375.265" xlink:href="#a" y1="357.78" y2="-127.265"></linearGradient><linearGradient id="i" x1="110.22" x2="595.265" xlink:href="#a" y1="577.78" y2="92.735"></linearGradient><g><path d="m456 40h-32v-8a8 8 0 0 0 -8-8h-32a8 8 0 0 0 -8 8v8h-24v-8a8 8 0 0 0 -8-8h-32a8 8 0 0 0 -8 8v8h-24v-8a8 8 0 0 0 -8-8h-32a8 8 0 0 0 -8 8v8h-24v-8a8 8 0 0 0 -8-8h-32a8 8 0 0 0 -8 8v8h-24v-8a8 8 0 0 0 -8-8h-32a8 8 0 0 0 -8 8v8h-32a48.051 48.051 0 0 0 -48 48v352a48.051 48.051 0 0 0 48 48h400a48.051 48.051 0 0 0 48-48v-352a48.051 48.051 0 0 0 -48-48zm-64 0h16v16h-16zm-72 0h16v16h-16zm-72 0h16v16h-16zm-72 0h16v16h-16zm-72 0h16v16h-16zm384 400a32.036 32.036 0 0 1 -32 32h-400a32.036 32.036 0 0 1 -32-32v-12.26a47.8 47.8 0 0 0 32 12.26h336a7.979 7.979 0 0 0 5.63-2.32l90.37-89.5zm-88-27.18v-76.82h77.56zm88-92.82h-96a8 8 0 0 0 -8 8v96h-328a32.036 32.036 0 0 1 -32-32v-280h464zm0-224h-464v-8a32.036 32.036 0 0 1 32-32h32v8a8 8 0 0 0 8 8h32a8 8 0 0 0 8-8v-8h24v8a8 8 0 0 0 8 8h32a8 8 0 0 0 8-8v-8h24v8a8 8 0 0 0 8 8h32a8 8 0 0 0 8-8v-8h24v8a8 8 0 0 0 8 8h32a8 8 0 0 0 8-8v-8h24v8a8 8 0 0 0 8 8h32a8 8 0 0 0 8-8v-8h32a32.036 32.036 0 0 1 32 32z" fill="url(#a)"></path><path d="m224 208h64a8 8 0 0 0 8-8v-64a8 8 0 0 0 -8-8h-64a8 8 0 0 0 -8 8v64a8 8 0 0 0 8 8zm8-64h48v48h-48z" fill="url(#b)"></path><path d="m136 208h64a8 8 0 0 0 8-8v-64a8 8 0 0 0 -8-8h-64a8 8 0 0 0 -8 8v64a8 8 0 0 0 8 8zm8-64h48v48h-48z" fill="url(#c)"></path><path d="m400 208h64a8 8 0 0 0 8-8v-64a8 8 0 0 0 -8-8h-64a8 8 0 0 0 -8 8v64a8 8 0 0 0 8 8zm8-64h48v48h-48z" fill="url(#d)"></path><path d="m312 208h64a8 8 0 0 0 8-8v-64a8 8 0 0 0 -8-8h-64a8 8 0 0 0 -8 8v64a8 8 0 0 0 8 8zm8-64h48v48h-48z" fill="url(#e)"></path><path d="m48 208h64a8 8 0 0 0 8-8v-64a8 8 0 0 0 -8-8h-64a8 8 0 0 0 -8 8v64a8 8 0 0 0 8 8zm8-64h48v48h-48z" fill="url(#f)"></path><path d="m224 296h64a8 8 0 0 0 8-8v-64a8 8 0 0 0 -8-8h-64a8 8 0 0 0 -8 8v64a8 8 0 0 0 8 8zm8-64h48v48h-48z" fill="url(#e)"></path><path d="m136 296h64a8 8 0 0 0 8-8v-64a8 8 0 0 0 -8-8h-64a8 8 0 0 0 -8 8v64a8 8 0 0 0 8 8zm8-64h48v48h-48z" fill="url(#b)"></path><path d="m400 296h64a8 8 0 0 0 8-8v-64a8 8 0 0 0 -8-8h-64a8 8 0 0 0 -8 8v64a8 8 0 0 0 8 8zm8-64h48v48h-48z" fill="url(#i)"></path><path d="m312 296h64a8 8 0 0 0 8-8v-64a8 8 0 0 0 -8-8h-64a8 8 0 0 0 -8 8v64a8 8 0 0 0 8 8zm8-64h48v48h-48z" fill="url(#d)"></path><path d="m48 296h64a8 8 0 0 0 8-8v-64a8 8 0 0 0 -8-8h-64a8 8 0 0 0 -8 8v64a8 8 0 0 0 8 8zm8-64h48v48h-48z" fill="url(#c)"></path><path d="m224 384h64a8 8 0 0 0 8-8v-37.026l28.65-20.464a8 8 0 0 0 -9.3-13.02l-19.35 13.822v-7.312a8 8 0 0 0 -8-8h-64a8 8 0 0 0 -8 8v64a8 8 0 0 0 8 8zm8-64h48v10.74l-15.135 10.811-11.208-11.208a8 8 0 0 0 -11.314 11.314l16 16a8 8 0 0 0 10.307.853l11.35-8.11v17.6h-48z" fill="url(#d)"></path><path d="m136 384h64a8 8 0 0 0 8-8v-64a8 8 0 0 0 -8-8h-64a8 8 0 0 0 -8 8v64a8 8 0 0 0 8 8zm8-64h48v48h-48z" fill="url(#e)"></path><path d="m48 384h64a8 8 0 0 0 8-8v-64a8 8 0 0 0 -8-8h-64a8 8 0 0 0 -8 8v64a8 8 0 0 0 8 8zm8-64h48v48h-48z" fill="url(#b)"></path></g></svg>