<!-- icon666.com - MILLIONS vector ICONS FREE --><svg xmlns="http://www.w3.org/2000/svg" xmlns:xlink="http://www.w3.org/1999/xlink" id="Layer_1" viewBox="0 0 512 512" data-name="Layer 1"><linearGradient id="linear-gradient" gradientUnits="userSpaceOnUse" x1="256" x2="256" y1="467" y2="88.197"><stop offset=".322" stop-color="#6e3ab7"/><stop offset=".466" stop-color="#b074ee"/><stop offset=".752" stop-color="#9a40a6"/><stop offset=".898" stop-color="#e16fa6"/></linearGradient><path d="m434.076 407.372c-9.35 1.522-19.066 2.824-29.052 3.933v-49.729c5.82 1.469 11.668 3.207 17.511 5.261a6 6 0 0 0 7.282-8.486l-158.935-297.646-.489-44.77a53.013 53.013 0 0 0 -11.9-2.417c-8.4-.726-22.455-1.33-30.8 1.637a12.473 12.473 0 0 0 -3.012 1.571c-4.706.349-17.8 1.477-41.6 4.64a6 6 0 0 0 -2.718 10.815l13.915 10.028-11.221 13.817a6 6 0 0 0 4.655 9.784l38.352-4.5a11.341 11.341 0 0 0 4.266 1.522l26.714-1.479c-83.986 78.734-129.944 159.832-153.776 214.347-26.3 60.142-32.023 100.879-32.254 102.583a5.974 5.974 0 0 0 5.263 6.75l1.733 19.661-.353-.04a6 6 0 0 0 -6.58 7.139c.132.659 3.366 16.364 14.552 35.27a128.743 128.743 0 0 0 63.324 54.509 6.019 6.019 0 0 0 2.226.428h208.345a6 6 0 0 0 1.987-.338c36.065-12.657 55.73-35.646 65.875-52.7 11.036-18.553 13.487-34.113 13.586-34.767a6 6 0 0 0 -6.9-6.82zm-232.094-355.609 5.622-6.921a6 6 0 0 0 -1.148-8.651l-6.718-4.84c8.632-1.037 15.1-1.7 19.612-2.124l1.087 20.527c-6.827.626-13.163 1.346-18.455 2.009zm68.918 34.45 5.607 10.5h-5.607zm0 22.5h12.015l10.185 19.087a131.481 131.481 0 0 0 -22.2 1.062zm0 32.256c6.681-.928 19.008-2.156 29.013-.422l9.744 18.248c-14.462-.714-29.938 1.3-38.757 2.741zm0 32.746c9.161-1.571 29.724-4.487 45.516-2.262l9.809 18.369c-20.572-1.494-43.725 2.3-55.325 4.6zm0 32.965c11.186-2.311 40.529-7.546 62.189-4l10.4 19.474c-27.45-4.489-58.474 1.355-72.588 4.65zm0 32.479c12.84-3.144 51.5-11.257 80.017-3.095l10.023 18.77c-16.352-3.374-36.041-3.857-58.786-1.4a312.477 312.477 0 0 0 -31.254 5zm0 31.565c14.865-3.318 63.5-12.647 97.727-1.494l10.315 19.317c-19.733-3.839-43.523-4.617-70.962-2.3-16.023 1.353-29.338 3.453-37.08 4.839zm0 32.571c16.642-3.074 73.75-12.136 115.546-.694l9.58 17.941c-53.783-12.053-105.787-1.283-125.126 3.73zm0 33.42c16-4.332 75.4-18.1 132.77-1.858l8.669 16.235c-37.4-10.247-73.443-9.308-98.255-6.4a284.968 284.968 0 0 0 -43.184 8.37zm0 28.858c14.427-4.295 65.787-17.46 122.125-6.657v53.617c-13.531 1.27-27.479 2.211-41.626 2.876l-7.206-35.745a11.832 11.832 0 0 0 -11.559-9.469h-61.734zm41.33 16.627v15.229h-16.946v-15.229zm-41.086 27.229a9.234 9.234 0 0 0 9.22-9.227v-18h2.92v18a9.233 9.233 0 0 0 9.219 9.227h22.508a9.234 9.234 0 0 0 9.219-9.227v-18h8.23l6.8 33.718c-51.153 1.837-104.1.3-148.867-2.159l5.546-5.023 32.4.692h.128a8.582 8.582 0 0 0 8.57-8.575v-18.655h2.386v18a9.234 9.234 0 0 0 9.22 9.227zm-57.517-32.9-.1.089-39.927 36.149c-37.392-2.339-67.464-5.152-83.432-6.777l-2.24-25.4a213.389 213.389 0 0 1 35.221-10.9c25.887-5.819 68.661-11.25 125.942-4.359l5.443 4.869h-23.95a25.914 25.914 0 0 0 -16.957 6.32zm11.4 6.848v13.973l-16.149-.345 12.645-11.453a13.95 13.95 0 0 1 3.508-2.184zm43.333 14.056h-16.943v-15.233h16.947zm-35.851-346.633v-.056l-1.259-23.778a.859.859 0 0 1 .468-.506c6.111-2.172 18.729-1.624 26.783-.89l.258 23.658zm26.391 44.054v263.146l-1.924-1.721c-2.2-7.89-11.831-44.465-15.579-93.932-3.341-44.078-2.418-106.287 17.503-167.493zm-9.53-9.381c-1.166 3.381-2.26 6.767-3.312 10.154q-2.754-.592-5.552-1.12c2.906-3.007 5.847-6.023 8.863-9.034zm-18.797 19.527c4.089.623 8.136 1.349 12.1 2.185q-2.979 10.857-5.268 21.651a114.639 114.639 0 0 0 -24.987-3.425q8.682-10.161 18.155-20.411zm-27.866 32.067c1.227.045 2.459.1 3.681.137 9.276.293 18.109.575 28.7 3.424q-1.925 10.592-3.261 20.984c-17.311-3.991-31.768-4.208-45.416-3.731q7.742-10.308 16.296-20.813zm-25.384 33.21.638-.029c15.863-.739 32.235-1.49 52.463 3.357q-1.114 10.828-1.7 21.282a262.755 262.755 0 0 0 -66.646-2.337q7.159-10.95 15.245-22.272zm-23.476 35.2a254.254 254.254 0 0 1 74.337 1.474q-.334 10.281-.254 20.011c-33.325-5.164-65.729-2.242-87.536 1.261q6.224-11.055 13.453-22.743zm-20.811 36.225c20.612-3.967 57.5-8.783 95.119-2.552.2 6.528.509 12.8.9 18.781-41.276-6.587-80.987-.843-106.75 5.034q4.883-10.185 10.731-21.26zm-18.773 38.8c.52-1.189 1.061-2.4 1.6-3.618 24.267-6.327 68.523-14.584 114.141-6.644.583 6.61 1.259 12.961 2 19.013-49.117-8.528-95.735.356-125.053 8.793q3.355-8.452 7.312-17.538zm-12.707 31.729c23.358-7.458 76.992-21.041 132.116-10.476 1 6.878 2.048 13.283 3.1 19.138-61.5-12.231-118.243 3.127-141.986 11.228 1.952-6.149 4.192-12.795 6.77-19.884zm-11.047 34.243c13.741-5.271 79.59-28.192 148.738-12.8 1.63 7.893 3.151 14.292 4.331 18.941-83.807-8.9-136.991 7.331-158.6 16.149 1.183-5.571 2.961-13.109 5.531-22.29zm267.981 143.526h-206.143a114.541 114.541 0 0 1 -53.413-44.266c7.372 1.035 17.771 2.4 30.608 3.824l34.911 3.4c30.834 2.59 68.957 4.728 110.8 4.728 43.276 0 90.532-2.3 137.808-8.737-10.436 15.073-27.361 31.267-54.571 41.051zm62.41-54.286c-95.017 14.09-191.194 10.682-255.362 5.292l-34.75-3.383c-19.746-2.195-33.635-4.234-39.4-5.125a123.255 123.255 0 0 1 -6.206-14.954c18.387 1.929 63.389 6.285 117.989 8.955 111.147 5.435 182.1.13 223.861-5.906a102.975 102.975 0 0 1 -6.132 15.121z" fill="url(#linear-gradient)"/></svg>