<!-- icon666.com - MILLIONS vector ICONS FREE --><svg xmlns="http://www.w3.org/2000/svg" xmlns:xlink="http://www.w3.org/1999/xlink" version="1.1" id="Capa_1" x="0px" y="0px" viewBox="0 0 512 512" style="enable-background:new 0 0 512 512;" xml:space="preserve"><linearGradient id="SVGID_1_" gradientUnits="userSpaceOnUse" x1="256" y1="514" x2="256" y2="2" gradientTransform="matrix(1 0 0 -1 0 514)"><stop offset="0" style="stop-color:#2AF598"/><stop offset="1" style="stop-color:#009EFD"/></linearGradient><path style="fill:url(#SVGID_1_);" d="M315.33,333.464l171.525-15.406l-2.693-20.645c-0.259-1.983-6.618-49.269-31.074-108.992 c-14.388-35.138-32.12-67.397-52.704-95.884c-25.949-35.912-56.516-65.892-90.853-89.105L304.456,0H275.33v376.222L32.031,395.9 l4.737,22.262c10.911,51.283,39.046,85.269,40.238,86.69L83.001,512h301.082l4.874-3.057c2.639-1.654,64.973-41.402,94.034-116.746 l1.34-3.474v-29.406l-169,13.669v-39.522H315.33z M315.33,58.213c51.628,44.693,82.689,101.576,100.309,144.313 c13.382,32.459,20.993,61.252,25,79.522L315.33,293.303V58.213z M372.096,472H102.467c-5.323-7.889-13.697-21.874-20.238-40.029 l351.153-28.402C412.224,440.579,383.053,464.02,372.096,472z M237.33,18.42l-34.487,36.233 c-3.779,3.97-93.36,99.188-164.959,270.059l-12.739,30.402l212.186-17.716V18.42H237.33z M197.33,300.601L88.103,309.72 c38.467-84.269,80.586-147.235,109.227-185.315L197.33,300.601L197.33,300.601z"/></svg>