<?xml version="1.0" encoding="UTF-8"?>
<svg xmlns="http://www.w3.org/2000/svg" xmlns:xlink="http://www.w3.org/1999/xlink" width="20px" height="20px" viewBox="0 0 20 20" version="1.1">
<g id="surface1">
<path style=" stroke:none;fill-rule:nonzero;fill:rgb(94.509804%,82.352941%,67.843137%);fill-opacity:1;" d="M 3.414062 9.910156 L 4.671875 9.910156 L 4.671875 15.738281 L 3.414062 15.738281 Z M 3.414062 9.910156 "/>
<path style=" stroke:none;fill-rule:nonzero;fill:rgb(94.509804%,82.352941%,67.843137%);fill-opacity:1;" d="M 9.0625 9.910156 L 10.320312 9.910156 L 10.320312 15.738281 L 9.0625 15.738281 Z M 9.0625 9.910156 "/>
<path style=" stroke:none;fill-rule:nonzero;fill:rgb(94.509804%,82.352941%,67.843137%);fill-opacity:1;" d="M 6.238281 9.910156 L 7.496094 9.910156 L 7.496094 15.738281 L 6.238281 15.738281 Z M 6.238281 9.910156 "/>
<path style=" stroke:none;fill-rule:nonzero;fill:rgb(94.509804%,82.352941%,67.843137%);fill-opacity:1;" d="M 12.195312 9.910156 L 13.453125 9.910156 L 13.453125 15.738281 L 12.195312 15.738281 Z M 12.195312 9.910156 "/>
<path style=" stroke:none;fill-rule:nonzero;fill:rgb(94.509804%,82.352941%,67.843137%);fill-opacity:1;" d="M 15.328125 9.910156 L 16.585938 9.910156 L 16.585938 15.738281 L 15.328125 15.738281 Z M 15.328125 9.910156 "/>
<path style=" stroke:none;fill-rule:nonzero;fill:rgb(0%,58.431373%,86.666667%);fill-opacity:1;" d="M 3.21875 15.738281 L 16.78125 15.738281 C 17.496094 15.738281 18.082031 16.316406 18.082031 17.035156 C 18.082031 17.753906 17.496094 18.335938 16.78125 18.335938 L 3.21875 18.335938 C 2.503906 18.335938 1.917969 17.753906 1.917969 17.035156 C 1.917969 16.316406 2.503906 15.738281 3.21875 15.738281 Z M 3.21875 15.738281 "/>
<path style=" stroke:none;fill-rule:nonzero;fill:rgb(0%,58.431373%,86.666667%);fill-opacity:1;" d="M 1.921875 7.632812 L 18.078125 7.632812 L 18.078125 9.910156 L 1.921875 9.910156 Z M 1.921875 7.632812 "/>
<path style=" stroke:none;fill-rule:nonzero;fill:rgb(0%,58.431373%,86.666667%);fill-opacity:1;" d="M 0 7.632812 L 10 1.664062 L 20 7.632812 Z M 0 7.632812 "/>
<path style=" stroke:none;fill-rule:nonzero;fill:rgb(94.509804%,82.352941%,67.843137%);fill-opacity:1;" d="M 11.5 5.09375 C 11.5 5.925781 10.828125 6.597656 10 6.597656 C 9.171875 6.597656 8.5 5.925781 8.5 5.09375 C 8.5 4.265625 9.171875 3.59375 10 3.59375 C 10.828125 3.59375 11.5 4.265625 11.5 5.09375 Z M 11.5 5.09375 "/>
<path style=" stroke:none;fill-rule:nonzero;fill:rgb(0%,58.431373%,86.666667%);fill-opacity:1;" d="M 10.667969 5.523438 C 10.671875 5.6875 10.613281 5.851562 10.503906 5.972656 C 10.414062 6.070312 10.289062 6.128906 10.125 6.148438 L 10.125 6.230469 C 10.125 6.300781 10.070312 6.355469 10 6.355469 C 9.929688 6.355469 9.875 6.300781 9.875 6.230469 L 9.875 6.148438 C 9.589844 6.113281 9.410156 5.945312 9.335938 5.644531 C 9.324219 5.597656 9.332031 5.546875 9.359375 5.503906 C 9.390625 5.464844 9.433594 5.4375 9.484375 5.429688 C 9.5625 5.421875 9.636719 5.46875 9.664062 5.542969 C 9.703125 5.667969 9.773438 5.75 9.875 5.785156 C 9.914062 5.796875 9.957031 5.804688 10 5.804688 C 10.042969 5.804688 10.082031 5.800781 10.125 5.789062 C 10.171875 5.777344 10.210938 5.757812 10.242188 5.726562 C 10.300781 5.675781 10.332031 5.601562 10.332031 5.527344 C 10.332031 5.484375 10.320312 5.445312 10.300781 5.410156 C 10.277344 5.375 10.246094 5.347656 10.207031 5.328125 C 10.191406 5.320312 10.164062 5.308594 10.128906 5.296875 C 10.074219 5.277344 10 5.25 9.90625 5.222656 C 9.894531 5.21875 9.886719 5.21875 9.878906 5.214844 C 9.773438 5.1875 9.675781 5.140625 9.585938 5.082031 C 9.515625 5.027344 9.464844 4.957031 9.429688 4.878906 C 9.390625 4.796875 9.367188 4.703125 9.367188 4.609375 C 9.367188 4.507812 9.394531 4.398438 9.445312 4.308594 C 9.496094 4.222656 9.566406 4.152344 9.65625 4.105469 C 9.722656 4.078125 9.789062 4.054688 9.859375 4.046875 C 9.867188 4.046875 9.871094 4.046875 9.878906 4.046875 L 9.878906 3.964844 C 9.878906 3.894531 9.933594 3.839844 10.003906 3.839844 C 10.074219 3.839844 10.128906 3.894531 10.128906 3.964844 L 10.128906 4.050781 L 10.148438 4.054688 C 10.257812 4.070312 10.367188 4.121094 10.449219 4.199219 C 10.515625 4.265625 10.5625 4.347656 10.589844 4.4375 C 10.609375 4.492188 10.597656 4.546875 10.566406 4.59375 C 10.535156 4.640625 10.484375 4.667969 10.429688 4.671875 L 10.421875 4.671875 C 10.347656 4.671875 10.28125 4.625 10.257812 4.554688 C 10.242188 4.515625 10.21875 4.476562 10.191406 4.449219 C 10.171875 4.433594 10.152344 4.417969 10.128906 4.410156 C 10.082031 4.390625 10.03125 4.378906 9.976562 4.378906 C 9.945312 4.378906 9.910156 4.382812 9.878906 4.390625 C 9.839844 4.398438 9.800781 4.414062 9.769531 4.4375 C 9.722656 4.46875 9.691406 4.527344 9.691406 4.582031 C 9.691406 4.632812 9.71875 4.6875 9.761719 4.722656 C 9.796875 4.75 9.835938 4.769531 9.878906 4.785156 C 9.925781 4.804688 9.992188 4.824219 10.070312 4.847656 C 10.089844 4.851562 10.109375 4.859375 10.128906 4.867188 C 10.238281 4.898438 10.34375 4.941406 10.4375 5.003906 C 10.511719 5.054688 10.574219 5.128906 10.609375 5.214844 C 10.652344 5.3125 10.671875 5.417969 10.667969 5.523438 Z M 10.667969 5.523438 "/>
<path style=" stroke:none;fill-rule:nonzero;fill:rgb(0%,58.431373%,86.666667%);fill-opacity:1;" d="M 3.109375 9.910156 L 4.976562 9.910156 L 4.976562 10.378906 L 3.109375 10.378906 Z M 3.109375 9.910156 "/>
<path style=" stroke:none;fill-rule:nonzero;fill:rgb(0%,58.431373%,86.666667%);fill-opacity:1;" d="M 5.933594 9.910156 L 7.800781 9.910156 L 7.800781 10.378906 L 5.933594 10.378906 Z M 5.933594 9.910156 "/>
<path style=" stroke:none;fill-rule:nonzero;fill:rgb(0%,58.431373%,86.666667%);fill-opacity:1;" d="M 8.757812 9.910156 L 10.625 9.910156 L 10.625 10.378906 L 8.757812 10.378906 Z M 8.757812 9.910156 "/>
<path style=" stroke:none;fill-rule:nonzero;fill:rgb(0%,58.431373%,86.666667%);fill-opacity:1;" d="M 11.890625 9.910156 L 13.753906 9.910156 L 13.753906 10.378906 L 11.890625 10.378906 Z M 11.890625 9.910156 "/>
<path style=" stroke:none;fill-rule:nonzero;fill:rgb(0%,58.431373%,86.666667%);fill-opacity:1;" d="M 15.023438 9.910156 L 16.890625 9.910156 L 16.890625 10.378906 L 15.023438 10.378906 Z M 15.023438 9.910156 "/>
<path style=" stroke:none;fill-rule:nonzero;fill:rgb(94.509804%,82.352941%,67.843137%);fill-opacity:1;" d="M 1.917969 7.871094 L 18.082031 7.871094 L 18.082031 7.984375 L 1.917969 7.984375 Z M 1.917969 7.871094 "/>
<path style=" stroke:none;fill-rule:nonzero;fill:rgb(94.509804%,82.352941%,67.843137%);fill-opacity:1;" d="M 1.917969 8.152344 L 18.082031 8.152344 L 18.082031 8.265625 L 1.917969 8.265625 Z M 1.917969 8.152344 "/>
<path style=" stroke:none;fill-rule:nonzero;fill:rgb(94.509804%,82.352941%,67.843137%);fill-opacity:1;" d="M 1.917969 8.433594 L 18.082031 8.433594 L 18.082031 8.550781 L 1.917969 8.550781 Z M 1.917969 8.433594 "/>
<path style=" stroke:none;fill-rule:nonzero;fill:rgb(94.509804%,82.352941%,67.843137%);fill-opacity:1;" d="M 1.917969 8.714844 L 18.082031 8.714844 L 18.082031 8.832031 L 1.917969 8.832031 Z M 1.917969 8.714844 "/>
<path style=" stroke:none;fill-rule:nonzero;fill:rgb(94.509804%,82.352941%,67.843137%);fill-opacity:1;" d="M 1.917969 8.996094 L 18.082031 8.996094 L 18.082031 9.113281 L 1.917969 9.113281 Z M 1.917969 8.996094 "/>
<path style=" stroke:none;fill-rule:nonzero;fill:rgb(94.509804%,82.352941%,67.843137%);fill-opacity:1;" d="M 1.917969 9.277344 L 18.082031 9.277344 L 18.082031 9.390625 L 1.917969 9.390625 Z M 1.917969 9.277344 "/>
<path style=" stroke:none;fill-rule:nonzero;fill:rgb(94.509804%,82.352941%,67.843137%);fill-opacity:1;" d="M 1.917969 9.558594 L 18.082031 9.558594 L 18.082031 9.671875 L 1.917969 9.671875 Z M 1.917969 9.558594 "/>
</g>
</svg>
