<?xml version="1.0" encoding="UTF-8"?>
<svg xmlns="http://www.w3.org/2000/svg" xmlns:xlink="http://www.w3.org/1999/xlink" width="28px" height="28px" viewBox="0 0 28 28" version="1.1">
<g id="surface1">
<path style=" stroke:none;fill-rule:nonzero;fill:rgb(94.509804%,82.352941%,67.843137%);fill-opacity:1;" d="M 4.78125 13.875 L 6.542969 13.875 L 6.542969 22.03125 L 4.78125 22.03125 Z M 4.78125 13.875 "/>
<path style=" stroke:none;fill-rule:nonzero;fill:rgb(94.509804%,82.352941%,67.843137%);fill-opacity:1;" d="M 12.6875 13.875 L 14.449219 13.875 L 14.449219 22.03125 L 12.6875 22.03125 Z M 12.6875 13.875 "/>
<path style=" stroke:none;fill-rule:nonzero;fill:rgb(94.509804%,82.352941%,67.843137%);fill-opacity:1;" d="M 8.734375 13.875 L 10.496094 13.875 L 10.496094 22.03125 L 8.734375 22.03125 Z M 8.734375 13.875 "/>
<path style=" stroke:none;fill-rule:nonzero;fill:rgb(94.509804%,82.352941%,67.843137%);fill-opacity:1;" d="M 17.074219 13.875 L 18.832031 13.875 L 18.832031 22.03125 L 17.074219 22.03125 Z M 17.074219 13.875 "/>
<path style=" stroke:none;fill-rule:nonzero;fill:rgb(94.509804%,82.352941%,67.843137%);fill-opacity:1;" d="M 21.457031 13.875 L 23.21875 13.875 L 23.21875 22.03125 L 21.457031 22.03125 Z M 21.457031 13.875 "/>
<path style=" stroke:none;fill-rule:nonzero;fill:rgb(0%,58.431373%,86.666667%);fill-opacity:1;" d="M 4.507812 22.03125 L 23.492188 22.03125 C 24.496094 22.03125 25.3125 22.84375 25.3125 23.851562 C 25.3125 24.855469 24.496094 25.667969 23.492188 25.667969 L 4.507812 25.667969 C 3.503906 25.667969 2.6875 24.855469 2.6875 23.851562 C 2.6875 22.84375 3.503906 22.03125 4.507812 22.03125 Z M 4.507812 22.03125 "/>
<path style=" stroke:none;fill-rule:nonzero;fill:rgb(0%,58.431373%,86.666667%);fill-opacity:1;" d="M 2.691406 10.6875 L 25.308594 10.6875 L 25.308594 13.875 L 2.691406 13.875 Z M 2.691406 10.6875 "/>
<path style=" stroke:none;fill-rule:nonzero;fill:rgb(0%,58.431373%,86.666667%);fill-opacity:1;" d="M 0 10.6875 L 14 2.332031 L 28 10.6875 Z M 0 10.6875 "/>
<path style=" stroke:none;fill-rule:nonzero;fill:rgb(94.509804%,82.352941%,67.843137%);fill-opacity:1;" d="M 16.101562 7.132812 C 16.101562 8.296875 15.160156 9.238281 14 9.238281 C 12.839844 9.238281 11.898438 8.296875 11.898438 7.132812 C 11.898438 5.972656 12.839844 5.03125 14 5.03125 C 15.160156 5.03125 16.101562 5.972656 16.101562 7.132812 Z M 16.101562 7.132812 "/>
<path style=" stroke:none;fill-rule:nonzero;fill:rgb(0%,58.431373%,86.666667%);fill-opacity:1;" d="M 14.9375 7.734375 C 14.941406 7.964844 14.859375 8.191406 14.707031 8.363281 C 14.582031 8.496094 14.40625 8.582031 14.175781 8.605469 L 14.175781 8.722656 C 14.175781 8.820312 14.097656 8.898438 14 8.898438 C 13.902344 8.898438 13.824219 8.820312 13.824219 8.722656 L 13.824219 8.605469 C 13.425781 8.558594 13.175781 8.324219 13.070312 7.902344 C 13.054688 7.835938 13.066406 7.765625 13.105469 7.707031 C 13.144531 7.648438 13.207031 7.613281 13.277344 7.601562 C 13.386719 7.589844 13.492188 7.65625 13.527344 7.761719 C 13.582031 7.9375 13.683594 8.050781 13.824219 8.097656 C 13.878906 8.117188 13.9375 8.128906 14 8.128906 C 14.058594 8.128906 14.117188 8.121094 14.175781 8.105469 C 14.238281 8.085938 14.292969 8.058594 14.339844 8.015625 C 14.421875 7.945312 14.464844 7.84375 14.464844 7.738281 C 14.464844 7.679688 14.449219 7.621094 14.421875 7.574219 C 14.386719 7.523438 14.34375 7.484375 14.289062 7.460938 C 14.265625 7.449219 14.230469 7.433594 14.179688 7.414062 C 14.105469 7.386719 14 7.351562 13.867188 7.3125 C 13.851562 7.308594 13.839844 7.304688 13.828125 7.300781 C 13.683594 7.261719 13.546875 7.199219 13.421875 7.113281 C 13.324219 7.039062 13.25 6.941406 13.199219 6.832031 C 13.144531 6.714844 13.113281 6.585938 13.113281 6.453125 C 13.113281 6.308594 13.152344 6.160156 13.222656 6.03125 C 13.292969 5.910156 13.394531 5.8125 13.519531 5.75 C 13.609375 5.707031 13.703125 5.675781 13.804688 5.664062 C 13.8125 5.664062 13.820312 5.664062 13.828125 5.664062 L 13.828125 5.550781 C 13.828125 5.453125 13.90625 5.375 14.003906 5.375 C 14.101562 5.375 14.179688 5.453125 14.179688 5.550781 L 14.179688 5.671875 L 14.207031 5.675781 C 14.363281 5.699219 14.511719 5.769531 14.628906 5.878906 C 14.722656 5.972656 14.789062 6.085938 14.828125 6.214844 C 14.851562 6.289062 14.835938 6.367188 14.792969 6.429688 C 14.75 6.496094 14.679688 6.535156 14.601562 6.539062 L 14.589844 6.539062 C 14.484375 6.539062 14.394531 6.472656 14.359375 6.375 C 14.339844 6.320312 14.308594 6.269531 14.265625 6.226562 C 14.238281 6.207031 14.210938 6.1875 14.179688 6.171875 C 14.113281 6.144531 14.042969 6.132812 13.96875 6.132812 C 13.921875 6.132812 13.875 6.136719 13.828125 6.148438 C 13.773438 6.160156 13.71875 6.179688 13.675781 6.214844 C 13.609375 6.257812 13.570312 6.335938 13.570312 6.414062 C 13.570312 6.488281 13.605469 6.5625 13.664062 6.609375 C 13.714844 6.648438 13.769531 6.675781 13.828125 6.699219 C 13.898438 6.726562 13.988281 6.753906 14.097656 6.785156 C 14.125 6.792969 14.152344 6.804688 14.179688 6.8125 C 14.335938 6.855469 14.480469 6.917969 14.613281 7.003906 C 14.71875 7.078125 14.804688 7.179688 14.855469 7.300781 C 14.914062 7.4375 14.941406 7.585938 14.9375 7.734375 Z M 14.9375 7.734375 "/>
<path style=" stroke:none;fill-rule:nonzero;fill:rgb(0%,58.431373%,86.666667%);fill-opacity:1;" d="M 4.355469 13.875 L 6.96875 13.875 L 6.96875 14.53125 L 4.355469 14.53125 Z M 4.355469 13.875 "/>
<path style=" stroke:none;fill-rule:nonzero;fill:rgb(0%,58.431373%,86.666667%);fill-opacity:1;" d="M 8.308594 13.875 L 10.921875 13.875 L 10.921875 14.53125 L 8.308594 14.53125 Z M 8.308594 13.875 "/>
<path style=" stroke:none;fill-rule:nonzero;fill:rgb(0%,58.431373%,86.666667%);fill-opacity:1;" d="M 12.261719 13.875 L 14.875 13.875 L 14.875 14.53125 L 12.261719 14.53125 Z M 12.261719 13.875 "/>
<path style=" stroke:none;fill-rule:nonzero;fill:rgb(0%,58.431373%,86.666667%);fill-opacity:1;" d="M 16.644531 13.875 L 19.257812 13.875 L 19.257812 14.53125 L 16.644531 14.53125 Z M 16.644531 13.875 "/>
<path style=" stroke:none;fill-rule:nonzero;fill:rgb(0%,58.431373%,86.666667%);fill-opacity:1;" d="M 21.03125 13.875 L 23.644531 13.875 L 23.644531 14.53125 L 21.03125 14.53125 Z M 21.03125 13.875 "/>
<path style=" stroke:none;fill-rule:nonzero;fill:rgb(94.509804%,82.352941%,67.843137%);fill-opacity:1;" d="M 2.6875 11.019531 L 25.3125 11.019531 L 25.3125 11.179688 L 2.6875 11.179688 Z M 2.6875 11.019531 "/>
<path style=" stroke:none;fill-rule:nonzero;fill:rgb(94.509804%,82.352941%,67.843137%);fill-opacity:1;" d="M 2.6875 11.414062 L 25.3125 11.414062 L 25.3125 11.574219 L 2.6875 11.574219 Z M 2.6875 11.414062 "/>
<path style=" stroke:none;fill-rule:nonzero;fill:rgb(94.509804%,82.352941%,67.843137%);fill-opacity:1;" d="M 2.6875 11.804688 L 25.3125 11.804688 L 25.3125 11.96875 L 2.6875 11.96875 Z M 2.6875 11.804688 "/>
<path style=" stroke:none;fill-rule:nonzero;fill:rgb(94.509804%,82.352941%,67.843137%);fill-opacity:1;" d="M 2.6875 12.199219 L 25.3125 12.199219 L 25.3125 12.363281 L 2.6875 12.363281 Z M 2.6875 12.199219 "/>
<path style=" stroke:none;fill-rule:nonzero;fill:rgb(94.509804%,82.352941%,67.843137%);fill-opacity:1;" d="M 2.6875 12.59375 L 25.3125 12.59375 L 25.3125 12.757812 L 2.6875 12.757812 Z M 2.6875 12.59375 "/>
<path style=" stroke:none;fill-rule:nonzero;fill:rgb(94.509804%,82.352941%,67.843137%);fill-opacity:1;" d="M 2.6875 12.988281 L 25.3125 12.988281 L 25.3125 13.148438 L 2.6875 13.148438 Z M 2.6875 12.988281 "/>
<path style=" stroke:none;fill-rule:nonzero;fill:rgb(94.509804%,82.352941%,67.843137%);fill-opacity:1;" d="M 2.6875 13.382812 L 25.3125 13.382812 L 25.3125 13.542969 L 2.6875 13.542969 Z M 2.6875 13.382812 "/>
</g>
</svg>
