<!-- icon666.com - MILLIONS vector ICONS FREE --><svg xmlns="http://www.w3.org/2000/svg" xmlns:xlink="http://www.w3.org/1999/xlink" id="Layer_1" enable-background="new 0 0 512 512" viewBox="0 0 512 512"><linearGradient id="lg1"><stop offset="0" stop-color="#e3158a"/><stop offset="1" stop-color="#805f73"/></linearGradient><linearGradient id="SVGID_1_" gradientUnits="userSpaceOnUse" x1=".002" x2="511.999" xlink:href="#lg1" y1="256" y2="256"/><linearGradient id="SVGID_2_" gradientUnits="userSpaceOnUse" x1="387.453" x2="418.854" xlink:href="#lg1" y1="85.273" y2="85.273"/><linearGradient id="SVGID_3_" gradientUnits="userSpaceOnUse" x1="425.354" x2="470.462" xlink:href="#lg1" y1="177.966" y2="177.966"/><linearGradient id="SVGID_4_" gradientUnits="userSpaceOnUse" x1="188.603" x2="323.398" xlink:href="#lg1" y1="224.809" y2="224.809"/><linearGradient id="SVGID_5_" gradientUnits="userSpaceOnUse" x1="143.173" x2="368.828" xlink:href="#lg1" y1="224.808" y2="224.808"/><g><path d="m468.3 71.3c-28.5-28.5-63.9-43.8-102.4-44-36.4-.2-73.1 13.5-103.2 38.6-3.8 3.2-9.1 3.2-13 0-29.9-24.9-66.2-38.6-102.3-38.6-.3 0-.7 0-1 0-38.5.3-73.9 15.5-102.4 44-30.1 30.1-45.7 69.2-43.8 110 1.8 39.4 19.4 77.7 49.6 107.8l188 188c4.9 4.9 11.5 7.6 18.5 7.6s13.5-2.7 18.5-7.6l193.7-193.7c28.2-28.2 43.7-65.9 43.7-106-.2-40.2-15.7-77.9-43.9-106.1zm-11.4 200.8-193.6 193.7c-1.9 1.9-4.4 2.9-7.1 2.9s-5.2-1-7.1-2.9l-188-188c-58.3-58.2-60.7-140.3-5.8-195.2 26.2-26.2 59-39.3 92.5-39.3 31.5 0 63.7 11.6 91.6 34.9 9.7 8.1 23.8 8.1 33.5 0 57.6-48.1 133.3-46.3 184.1 4.4 25.2 25.2 39.1 58.8 39.1 94.7-.1 35.9-14 69.6-39.2 94.8z" fill="url(#SVGID_1_)"/><path d="m414.7 81.7c-5.3-2.9-10.9-5.4-16.7-7.4-4.2-1.4-8.7.8-10.2 5-1.4 4.2.8 8.7 5 10.2 4.9 1.7 9.6 3.8 14.1 6.3 1.2.7 2.6 1 3.9 1 2.8 0 5.5-1.5 7-4.1 2.2-4 .8-8.9-3.1-11z" fill="url(#SVGID_2_)"/><path d="m470.5 176.7c-.4-27.6-11.2-54.8-29.8-74.7-3-3.2-8.1-3.4-11.3-.4s-3.4 8.1-.4 11.3c29.9 32 37.9 90.8-1.3 129.9-3.1 3.1-3.1 8.2 0 11.3 1.6 1.6 3.6 2.3 5.7 2.3s4.1-.8 5.7-2.3c20.6-20.6 31.7-48.1 31.4-77.4z" fill="url(#SVGID_3_)"/><path d="m307.1 195.4h-21.7v-21.7c0-9-7.3-16.3-16.3-16.3h-26.2c-9 0-16.3 7.3-16.3 16.3v21.7h-21.7c-9 0-16.3 7.3-16.3 16.3v26.2c0 9 7.3 16.3 16.3 16.3h21.7v21.7c0 9 7.3 16.3 16.3 16.3h26.2c9 0 16.3-7.3 16.3-16.3v-21.7h21.7c9 0 16.3-7.3 16.3-16.3v-26.2c0-9-7.3-16.3-16.3-16.3zm.3 42.5c0 .2-.2.3-.3.3h-28.7c-5 0-9 4-9 9v28.7c0 .1-.2.3-.3.3h-26.2c-.2 0-.3-.2-.3-.3v-28.7c0-5-4-9-9-9h-28.7c-.2 0-.3-.2-.3-.3v-26.2c0-.2.2-.3.3-.3h28.7c5 0 9-4 9-9v-28.7c0-.2.2-.3.3-.3h26.2c.1 0 .3.2.3.3v28.7c0 5 4 9 9 9h28.7c.2 0 .3.2.3.3z" fill="url(#SVGID_4_)"/><path d="m256 112c-62.2 0-112.8 50.6-112.8 112.8s50.6 112.8 112.8 112.8 112.8-50.6 112.8-112.8-50.6-112.8-112.8-112.8zm0 209.6c-53.4 0-96.8-43.4-96.8-96.8s43.4-96.8 96.8-96.8 96.8 43.4 96.8 96.8-43.4 96.8-96.8 96.8z" fill="url(#SVGID_5_)"/></g></svg>