<!-- icon666.com - MILLIONS vector ICONS FREE --><svg xmlns="http://www.w3.org/2000/svg" xmlns:xlink="http://www.w3.org/1999/xlink" viewBox="0 0 496 496"><linearGradient id="a" gradientUnits="userSpaceOnUse" x1="248" x2="248" y1="496" y2="0"><stop offset="0" stop-color="#c43b9d"/><stop offset="1" stop-color="#44bbb7"/></linearGradient><path d="m224 176h48v-32h32v-48h-32v-32h-48v32h-32v48h32zm-16-48v-16h32v-32h16v32h32v16h-32v32h-16v-32zm224 240c-23.625 0-44.257812 12.902344-55.34375 32h-16.65625c-13.230469 0-24 10.769531-24 24h-312c-4.40625 0-8-3.585938-8-8v-16c0-4.414062 3.59375-8 8-8h208c13.230469 0 24-10.769531 24-24v-24c8.824219 0 16-7.175781 16-16v-16h16c8.824219 0 16-7.175781 16-16v-3.910156l107.519531-77.65625c22.839844-16.496094 36.480469-43.167969 36.480469-71.335938v-7.097656c0-26.144531-11.953125-51.070312-32-67.6875v-4.3125c0-13.230469-10.769531-24-24-24h-16.359375c-12.351563-23.726562-37.128906-40-65.679687-40h-2.617188c-19.777344 0-38.367188 7.695312-52.34375 21.679688l-7 7.007812-7-7.007812c-13.984375-13.984376-32.574219-21.679688-52.351562-21.679688h-2.617188c-28.550781 0-53.328125 16.273438-65.679688 40h-16.351562c-13.230469 0-24 10.769531-24 24v4.3125c-20.046875 16.617188-32 41.542969-32 67.6875v7.097656c0 28.175782 13.640625 54.847656 36.480469 71.335938l107.519531 77.65625v3.910156c0 8.824219 7.175781 16 16 16h16v16c0 8.824219 7.175781 16 16 16v24c0 4.414062-3.59375 8-8 8h-208c-13.230469 0-24 10.769531-24 24v16c0 13.230469 10.769531 24 24 24h312c0 13.230469 10.769531 24 24 24h16.65625c11.085938 19.097656 31.710938 32 55.34375 32 35.289062 0 64-28.710938 64-64s-28.710938-64-64-64zm-40-312c4.40625 0 8 3.59375 8 8v16c0 4.40625-3.59375 8-8 8h-9.398438c.871094-4.566406 1.398438-9.230469 1.398438-13.96875 0-6.222656-.855469-12.246094-2.3125-18.03125zm-205.96875-40h2.617188c15.503906 0 30.070312 6.03125 41.03125 17l18.320312 18.3125 18.320312-18.320312c10.960938-10.960938 25.527344-16.992188 41.03125-16.992188h2.617188c32 0 58.03125 26.03125 58.03125 58.03125 0 16.738281-7.222656 32.65625-19.824219 43.671875l-100.175781 87.664063-100.175781-87.65625c-12.601563-11.023438-19.824219-26.933594-19.824219-43.679688 0-32 26.03125-58.03125 58.03125-58.03125zm-90.03125 48c0-4.40625 3.59375-8 8-8h10.3125c-1.457031 5.785156-2.3125 11.808594-2.3125 18.03125 0 4.730469.527344 9.394531 1.398438 13.96875h-9.398438c-4.40625 0-8-3.59375-8-8zm97.457031 209.40625-99.617187-71.941406c-18.679688-13.496094-29.839844-35.3125-29.839844-58.367188v-7.097656c0-17.425781 6.488281-34.191406 17.726562-47.175781 3.53125 8.871093 12.160157 15.175781 22.273438 15.175781h14.367188c4.320312 9.753906 10.703124 18.566406 18.914062 25.753906l110.71875 96.878906 110.71875-96.878906c8.210938-7.179687 14.59375-16 18.914062-25.753906h14.367188c10.113281 0 18.742188-6.304688 22.273438-15.175781 11.238281 12.984375 17.726562 29.75 17.726562 47.175781v7.097656c0 23.054688-11.160156 44.871094-29.839844 58.367188l-99.617187 71.941406c-2.519531-5.535156-8.070313-9.40625-14.542969-9.40625h-80c-6.472656 0-12.023438 3.871094-14.542969 9.40625zm14.542969 22.59375v-16h80v16h-32v32h-16v-32zm152 152c-4.40625 0-8-3.585938-8-8v-16c0-4.414062 3.59375-8 8-8h10.105469c-1.328125 5.128906-2.105469 10.464844-2.105469 16s.777344 10.871094 2.105469 16zm72 32c-26.472656 0-48-21.527344-48-48s21.527344-48 48-48 48 21.527344 48 48-21.527344 48-48 48zm0-80c-17.648438 0-32 14.351562-32 32s14.351562 32 32 32 32-14.351562 32-32-14.351562-32-32-32zm0 48c-8.824219 0-16-7.175781-16-16s7.175781-16 16-16 16 7.175781 16 16-7.175781 16-16 16zm0 0" fill="url(#a)"/></svg>