<!-- icon666.com - MILLIONS vector ICONS FREE --><svg xmlns="http://www.w3.org/2000/svg" xmlns:xlink="http://www.w3.org/1999/xlink" viewBox="0 0 496 496"><linearGradient id="a" gradientUnits="userSpaceOnUse" x1="248" x2="248" y1="496" y2="0"><stop offset="0" stop-color="#c13085"/><stop offset="1" stop-color="#34656f"/></linearGradient><path d="m368 144v-17.472656c-9.289062-3.3125-16-12.113282-16-22.527344h16c0 4.40625 3.59375 8 8 8s8-3.59375 8-8-3.59375-8-8-8c-13.230469 0-24-10.769531-24-24 0-10.414062 6.710938-19.214844 16-22.527344v-17.472656h16v17.472656c9.289062 3.3125 16 12.113282 16 22.527344h-16c0-4.40625-3.59375-8-8-8s-8 3.59375-8 8 3.59375 8 8 8c13.230469 0 24 10.769531 24 24 0 10.414062-6.710938 19.214844-16 22.527344v17.472656zm128 136v16c0 13.230469-10.769531 24-24 24v176h-448v-176c-13.230469 0-24-10.769531-24-24v-16c0-13.230469 10.769531-24 24-24v-128h80v128h24.207031c-5.078125-6.703125-8.207031-14.960938-8.207031-24 0-13.128906 6.449219-24.703125 16.246094-32-9.796875-7.296875-16.246094-18.871094-16.246094-32 0-22.054688 17.945312-40 40-40h104v128h16v-25.824219c0-16.582031 10.433594-31.632812 25.960938-37.457031l38.039062-14.261719v-8.570312c-32.726562-12.839844-56-44.664063-56-81.886719 0-48.519531 39.480469-88 88-88s88 39.480469 88 88c0 37.222656-23.273438 69.046875-56 81.886719v8.570312l38.039062 14.269531c15.527344 5.816407 25.960938 20.867188 25.960938 37.449219v25.824219c13.230469 0 24 10.769531 24 24zm-146.800781-86.398438-12.0625 4.527344 5.128906 30.757813 25.695313-10.277344zm34.847656 25 25.695313 10.277344 5.128906-30.757812-12.070313-4.519532zm-8.046875-58.601562c39.695312 0 72-32.304688 72-72s-32.304688-72-72-72-72 32.304688-72 72 32.304688 72 72 72zm-16 14.472656v6.863282l16 21.335937 16-21.335937v-6.863282c-5.199219.960938-10.527344 1.527344-16 1.527344s-10.800781-.566406-16-1.527344zm-64 81.527344h160v-25.824219c0-9.953125-6.257812-18.976562-15.574219-22.472656l-10.289062-3.855469-7.878907 47.273438-46.257812-18.503906-46.257812 18.496093-7.878907-47.273437-10.289062 3.855468c-9.316407 3.503907-15.574219 12.527344-15.574219 22.480469zm-48-48h-16v48h16zm-32-16v-48h-16v48zm-16 16v48h16v-48zm48-64h-16v48h16zm-88 48h24v-48h-24c-13.230469 0-24 10.769531-24 24s10.769531 24 24 24zm0 64h24v-48h-24c-13.230469 0-24 10.769531-24 24s10.769531 24 24 24zm-72-48h-48v16h48zm-48-64v48h48v-48zm0 112h48v-16h-48zm416 64h-416v160h416zm24-40c0-4.40625-3.59375-8-8-8h-448c-4.40625 0-8 3.59375-8 8v16c0 4.40625 3.59375 8 8 8h448c4.40625 0 8-3.59375 8-8zm-168 184h128v-16h-128zm128-48h-160v16h160zm-256-80h-128v16h128zm32 48v-16h-160v16zm-144-224h-16v16h16zm80 64v16h16v-16zm0-64v16h16v-16zm0 0" fill="url(#a)"/></svg>