<!-- icon666.com - MILLIONS vector ICONS FREE --><svg xmlns="http://www.w3.org/2000/svg" xmlns:xlink="http://www.w3.org/1999/xlink" id="_x33_0" enable-background="new 0 0 64 64" viewBox="0 0 64 64"><linearGradient id="SVGID_1_" gradientUnits="userSpaceOnUse" x1="32" x2="32" y1="63" y2="1"><stop offset="0" stop-color="#242323"/><stop offset="1" stop-color="#349db3"/></linearGradient><path d="m26.707 38.707-12 12-1.414-1.414 12-12zm-13.707 1.293c0-1.654 1.346-3 3-3s3 1.346 3 3-1.346 3-3 3-3-1.346-3-3zm2 0c0 .552.448 1 1 1s1-.448 1-1-.448-1-1-1-1 .448-1 1zm12 8c0 1.654-1.346 3-3 3s-3-1.346-3-3 1.346-3 3-3 3 1.346 3 3zm-2 0c0-.552-.448-1-1-1s-1 .448-1 1 .448 1 1 1 1-.448 1-1zm38-42v42c0 2.757-2.243 5-5 5h-21.273c-3.213 5.948-9.505 10-16.727 10-10.477 0-19-8.523-19-19s8.523-19 19-19c1.733 0 3.404.253 5 .69v-19.69c0-2.757 2.243-5 5-5h28c2.757 0 5 2.243 5 5zm-43 27c-6.065 0-11 4.935-11 11s4.935 11 11 11 11-4.935 11-11-4.935-11-11-11zm-1-5.949c-3.933.23-7.505 1.797-10.275 4.261l2.827 2.827c2.036-1.747 4.615-2.871 7.447-3.088v-4zm-11.689 5.674c-2.464 2.77-4.03 6.342-4.26 10.275h4c.217-2.833 1.341-5.411 3.088-7.447zm-4.26 12.275c.23 3.933 1.797 7.505 4.261 10.275l2.827-2.827c-1.747-2.037-2.871-4.615-3.088-7.448zm5.674 11.689c2.77 2.464 6.341 4.03 10.275 4.261v-4c-2.833-.217-5.411-1.341-7.447-3.088zm12.275 4.26c3.933-.23 7.505-1.797 10.275-4.261l-2.827-2.827c-2.036 1.747-4.615 2.871-7.447 3.088v4zm11.689-5.674c2.464-2.77 4.03-6.341 4.261-10.275h-4c-.217 2.833-1.341 5.411-3.088 7.447zm6.311-11.275c0 1.023-.104 2.02-.261 3h1.261c.552 0 1-.448 1-1v-8c0-.552-.448-1-1-1h-2.353c.864 2.169 1.353 4.527 1.353 7zm-6.311-11.275-2.827 2.827c1.747 2.036 2.871 4.615 3.088 7.447h4c-.231-3.932-1.797-7.504-4.261-10.274zm1.129-1.725h6.182c.552 0 1-.448 1-1v-8c0-.552-.448-1-1-1h-8c-.552 0-1 .448-1 1v6.537c1.02.728 1.962 1.553 2.818 2.463zm-12.818-3.949v4c2.833.217 5.411 1.341 7.447 3.088l2.827-2.827c-2.769-2.465-6.341-4.031-10.274-4.261zm40-21.051c0-1.654-1.346-3-3-3h-28c-1.654 0-3 1.346-3 3v20.353c.685.273 1.357.572 2 .92v-5.273c0-1.654 1.346-3 3-3h8c1.654 0 3 1.346 3 3v8c0 1.654-1.346 3-3 3h-4.537c.458.641.888 1.303 1.264 2h3.273c1.654 0 3 1.346 3 3v8c0 1.654-1.346 3-3 3h-1.69c-.187.682-.405 1.35-.663 2h20.353c1.654 0 3-1.346 3-3zm-2 2v6c0 1.654-1.346 3-3 3h-24c-1.654 0-3-1.346-3-3v-6c0-1.654 1.346-3 3-3h24c1.654 0 3 1.346 3 3zm-2 0c0-.552-.448-1-1-1h-24c-.552 0-1 .448-1 1v6c0 .552.448 1 1 1h24c.552 0 1-.448 1-1zm2 14v8c0 1.654-1.346 3-3 3h-8c-1.654 0-3-1.346-3-3v-8c0-1.654 1.346-3 3-3h8c1.654 0 3 1.346 3 3zm-2 0c0-.552-.448-1-1-1h-8c-.552 0-1 .448-1 1v8c0 .552.448 1 1 1h8c.552 0 1-.448 1-1zm2 16v8c0 1.654-1.346 3-3 3h-8c-1.654 0-3-1.346-3-3v-8c0-1.654 1.346-3 3-3h8c1.654 0 3 1.346 3 3zm-2 0c0-.552-.448-1-1-1h-8c-.552 0-1 .448-1 1v8c0 .552.448 1 1 1h8c.552 0 1-.448 1-1z" fill="url(#SVGID_1_)"/></svg>