<!-- icon666.com - MILLIONS vector ICONS FREE --><svg viewBox="0 1 479.99829 479.99829" xmlns="http://www.w3.org/2000/svg" xmlns:xlink="http://www.w3.org/1999/xlink"><linearGradient id="a"><stop offset="0" stop-color="#318634"></stop><stop offset=".207" stop-color="#4aa460"></stop><stop offset=".598" stop-color="#3fba5a"></stop><stop offset=".871" stop-color="#5ba668"></stop><stop offset="1" stop-color="#0cf22b"></stop></linearGradient><linearGradient id="b" gradientUnits="userSpaceOnUse" x1="16" x2="474.52" xlink:href="#a" y1="367.998292" y2="367.998292"></linearGradient><linearGradient id="c" gradientUnits="userSpaceOnUse" x1="16" x2="474.52" xlink:href="#a" y1="311.998292" y2="311.998292"></linearGradient><linearGradient id="d" gradientUnits="userSpaceOnUse" x1="16" x2="474.52" xlink:href="#a" y1="423.998292" y2="423.998292"></linearGradient><linearGradient id="e" gradientUnits="userSpaceOnUse" x1="16" x2="474.52" xlink:href="#a" y1="159.998292" y2="159.998292"></linearGradient><linearGradient id="f" gradientUnits="userSpaceOnUse" x1="16" x2="474.52" xlink:href="#a" y1="71.998292" y2="71.998292"></linearGradient><linearGradient id="g" gradientUnits="userSpaceOnUse" x1="16" x2="474.52" xlink:href="#a" y1="151.998292" y2="151.998292"></linearGradient><linearGradient id="h" gradientUnits="userSpaceOnUse" x1="16" x2="474.52" xlink:href="#a" y1="167.998292" y2="167.998292"></linearGradient><linearGradient id="i" gradientUnits="userSpaceOnUse" x1="16" x2="474.52" xlink:href="#a" y1="247.998292" y2="247.998292"></linearGradient><linearGradient id="j" gradientUnits="userSpaceOnUse" x1="16" x2="474.52" xlink:href="#a" y1="155.750292" y2="155.750292"></linearGradient><linearGradient id="k" gradientUnits="userSpaceOnUse" x1="16" x2="474.52" xlink:href="#a" y1="339.838292" y2="339.838292"></linearGradient><linearGradient id="l" gradientUnits="userSpaceOnUse" x1="16" x2="474.52" xlink:href="#a" y1="373.102292" y2="373.102292"></linearGradient><path d="m8 480h224c4.417969 0 8-3.582031 8-8v-208c0-4.421875-3.582031-8-8-8h-224c-4.417969 0-8 3.578125-8 8v208c0 4.417969 3.582031 8 8 8zm8-208h208v192h-208zm0 0" fill="url(#b)"></path><path d="m56 288c-13.253906 0-24 10.742188-24 24 0 13.253906 10.746094 24 24 24s24-10.746094 24-24c0-13.257812-10.746094-24-24-24zm0 32c-4.417969 0-8-3.582031-8-8 0-4.421875 3.582031-8 8-8s8 3.578125 8 8c0 4.417969-3.582031 8-8 8zm0 0" fill="url(#c)"></path><path d="m184 288c-13.253906 0-24 10.742188-24 24 0 13.253906 10.746094 24 24 24s24-10.746094 24-24c0-13.257812-10.746094-24-24-24zm0 32c-4.417969 0-8-3.582031-8-8 0-4.421875 3.582031-8 8-8s8 3.578125 8 8c0 4.417969-3.582031 8-8 8zm0 0" fill="url(#c)"></path><path d="m56 400c-13.253906 0-24 10.742188-24 24 0 13.253906 10.746094 24 24 24s24-10.746094 24-24c0-13.257812-10.746094-24-24-24zm0 32c-4.417969 0-8-3.582031-8-8 0-4.421875 3.582031-8 8-8s8 3.578125 8 8c0 4.417969-3.582031 8-8 8zm0 0" fill="url(#d)"></path><path d="m184 400c-13.253906 0-24 10.742188-24 24 0 13.253906 10.746094 24 24 24s24-10.746094 24-24c0-13.257812-10.746094-24-24-24zm0 32c-4.417969 0-8-3.582031-8-8 0-4.421875 3.582031-8 8-8s8 3.578125 8 8c0 4.417969-3.582031 8-8 8zm0 0" fill="url(#d)"></path><path d="m317.65625 2.34375c-3.125-3.125-8.1875-3.125-11.3125 0l-144 144c-3.121094 3.121094-3.121094 8.1875 0 11.308594l160 160c3.125 3.125 8.1875 3.125 11.3125 0l144-144c3.121094-3.121094 3.121094-8.1875 0-11.308594zm10.34375 298.34375-148.6875-148.6875 132.6875-132.691406 148.6875 148.691406zm0 0" fill="url(#e)"></path><path d="m288 72c0 13.253906 10.746094 24 24 24s24-10.746094 24-24c0-13.257812-10.746094-24-24-24s-24 10.742188-24 24zm32 0c0 4.417969-3.582031 8-8 8s-8-3.582031-8-8c0-4.421875 3.582031-8 8-8s8 3.578125 8 8zm0 0" fill="url(#f)"></path><path d="m232 128c-13.253906 0-24 10.742188-24 24 0 13.253906 10.746094 24 24 24s24-10.746094 24-24c0-13.257812-10.746094-24-24-24zm0 32c-4.417969 0-8-3.582031-8-8 0-4.421875 3.582031-8 8-8s8 3.578125 8 8c0 4.417969-3.582031 8-8 8zm0 0" fill="url(#g)"></path><path d="m296 160c0 13.253906 10.746094 24 24 24s24-10.746094 24-24c0-13.257812-10.746094-24-24-24s-24 10.742188-24 24zm32 0c0 4.417969-3.582031 8-8 8s-8-3.582031-8-8c0-4.421875 3.582031-8 8-8s8 3.578125 8 8zm0 0" fill="url(#e)"></path><path d="m408 192c13.253906 0 24-10.746094 24-24 0-13.257812-10.746094-24-24-24s-24 10.742188-24 24c0 13.253906 10.746094 24 24 24zm0-32c4.417969 0 8 3.578125 8 8 0 4.417969-3.582031 8-8 8s-8-3.582031-8-8c0-4.421875 3.582031-8 8-8zm0 0" fill="url(#h)"></path><path d="m304 248c0 13.253906 10.746094 24 24 24s24-10.746094 24-24c0-13.257812-10.746094-24-24-24s-24 10.742188-24 24zm32 0c0 4.417969-3.582031 8-8 8s-8-3.582031-8-8c0-4.421875 3.582031-8 8-8s8 3.578125 8 8zm0 0" fill="url(#i)"></path><path d="m152 112-5.128906-6.144531c-13.832032 12.140625-22.476563 29.132812-24.144532 47.460937-.058593 20.039063 8.550782 39.125 23.617188 52.335938l11.3125-11.308594c-11.757812-10.074219-18.652344-24.691406-18.953125-40.167969 1.449219-13.882812 8.007813-26.730469 18.402344-36.050781zm0 0" fill="url(#j)"></path><path d="m114.734375 97.980469c-15.417969 14.304687-24.929687 33.855469-26.664063 54.816406-.957031 21.089844 7.832032 41.53125 26.128907 60.753906l11.601562-11.023437c-13.726562-12.585938-21.605469-30.308594-21.753906-48.929688 1.570313-16.632812 9.117187-32.136718 21.242187-43.632812l-5.289062-5.964844zm0 0" fill="url(#j)"></path><path d="m331.886719 357.335938c19.117187-.816407 37.078125-9.363282 49.769531-23.683594l-11.3125-11.308594c-10.070312 11.761719-24.691406 18.660156-40.175781 18.949219-13.867188-1.449219-26.699219-8.007813-36-18.398438l-12.320313 10.222657c12.144532 13.839843 29.136719 22.488281 47.472656 24.160156.855469.039062 1.71875.058594 2.566407.058594zm0 0" fill="url(#k)"></path><path d="m328.800781 391.925781c1.039063.046875 2.070313.074219 3.101563.074219 21.914062-.835938 42.617187-10.246094 57.648437-26.210938l-11.023437-11.582031c-12.578125 13.730469-30.304688 21.605469-48.925782 21.742188-16.632812-1.5625-32.136718-9.109375-43.625-21.238281l-12 10.558593c14.3125 15.410157 33.863282 24.917969 54.824219 26.65625zm0 0" fill="url(#l)"></path></svg>