<!-- icon666.com - MILLIONS vector ICONS FREE --><svg xmlns="http://www.w3.org/2000/svg" xmlns:xlink="http://www.w3.org/1999/xlink" id="_x30_1_Percent" enable-background="new 0 0 48 48" viewBox="0 0 48 48"><linearGradient id="SVGID_1_" gradientUnits="userSpaceOnUse" x1="8.4" x2="39.46" y1="8.4" y2="39.46"><stop offset="0" stop-color="#4292dd"/><stop offset=".5" stop-color="#8950ac"/><stop offset="1" stop-color="#a29cdd"/></linearGradient><path d="m30 23c-2.2 0-4 1.8-4 4v2c0 2.2 1.8 4 4 4s4-1.8 4-4v-2c0-2.2-1.8-4-4-4zm2 6c0 1.1-.9 2-2 2s-2-.9-2-2v-2c0-1.1.9-2 2-2s2 .9 2 2zm-12.1 4.9c-.5-.2-.8-.8-.5-1.3l7.4-18c.2-.5.8-.8 1.3-.5s.8.8.5 1.3l-7.4 18c-.2.5-.8.7-1.3.5zm-1.9-18.9c-2.2 0-4 1.8-4 4v2c0 2.2 1.8 4 4 4s4-1.8 4-4v-2c0-2.2-1.8-4-4-4zm2 6c0 1.1-.9 2-2 2s-2-.9-2-2v-2c0-1.1.9-2 2-2s2 .9 2 2zm25.6 2.2-7.4-5 1.7-8.8c.1-.3 0-.7-.3-.9s-.6-.4-.9-.3l-8.8 1.7-5-7.4c-.3-.3-.6-.5-.9-.5s-.6.2-.8.4l-5 7.4-8.9-1.6c-.3-.1-.6 0-.9.2-.2.3-.3.6-.2.9l1.7 8.8-7.4 5c-.3.3-.5.6-.5.9s.2.6.4.8l7.4 5-1.7 8.8c-.1.3 0 .7.3.9s.6.3.9.3l8.8-1.7 5 7.4c.2.3.5.4.8.4s.6-.2.8-.4l5-7.4 8.8 1.7c.3.1.7 0 .9-.3s.3-.6.3-.9l-1.7-8.8 7.4-5c.3-.2.4-.5.4-.8s0-.6-.2-.8zm-9.2 5.4c-.3.2-.5.6-.4 1l1.6 8-8-1.6c-.4-.1-.8.1-1 .4l-4.6 6.8-4.6-6.8c-.2-.3-.6-.5-1-.4l-8 1.6 1.6-8c.1-.4-.1-.8-.4-1l-6.8-4.6 6.8-4.6c.3-.2.5-.6.4-1l-1.6-8 8 1.6c.4.1.8-.1 1-.4l4.6-6.8 4.6 6.8c.2.3.6.5 1 .4l8-1.6-1.6 8c-.1.4.1.8.4 1l6.8 4.6z" fill="url(#SVGID_1_)"/></svg>