<!-- icon666.com - MILLIONS vector ICONS FREE --><svg xmlns="http://www.w3.org/2000/svg" xmlns:xlink="http://www.w3.org/1999/xlink" id="Layer_1" viewBox="0 0 32 32" data-name="Layer 1"><linearGradient id="linear-gradient" gradientUnits="userSpaceOnUse" x1="-1.5" x2="33.5" y1="27.42" y2="4.58"><stop offset=".01" stop-color="#5e83bb"/><stop offset="1" stop-color="#56998c"/></linearGradient><path d="m5.61 11.75a4.38 4.38 0 1 1 6.2-6.2 4.38 4.38 0 0 1 -6.2 6.2zm17.68 7.25a4.39 4.39 0 1 0 3.1 1.29 4.37 4.37 0 0 0 -3.1-1.29zm8.71-15.8v25.59a3.21 3.21 0 0 1 -3.2 3.21h-25.59a3.22 3.22 0 0 1 -3.21-3.21v-25.59a3.21 3.21 0 0 1 3.21-3.2h25.59a3.21 3.21 0 0 1 3.2 3.2zm-27.89 10.05a6.51 6.51 0 1 0 9.2-9.25 6.51 6.51 0 1 0 -9.21 9.21zm.66 15.43 23.87-23.87a1.07 1.07 0 1 0 -1.51-1.51l-23.87 23.87a1.08 1.08 0 0 0 0 1.52 1.07 1.07 0 0 0 1.51-.01zm23.13-9.94a6.52 6.52 0 1 0 0 9.22 6.54 6.54 0 0 0 0-9.22z" fill="url(#linear-gradient)"/></svg>