<!-- icon666.com - MILLIONS vector ICONS FREE --><svg xmlns="http://www.w3.org/2000/svg" xmlns:xlink="http://www.w3.org/1999/xlink" viewBox="0 0 511.99964 511"><linearGradient id="a"><stop offset="0" stop-color="#e06422"/><stop offset=".437" stop-color="#b337aa"/><stop offset="1" stop-color="#1600de"/></linearGradient><linearGradient id="b" gradientTransform="matrix(.995319 0 0 -.995319 -.000252 503.216078)" gradientUnits="userSpaceOnUse" x1="132.1732" x2="497.8509" xlink:href="#a" y1="471.5442" y2="105.875"/><linearGradient id="c" gradientTransform="matrix(.995319 0 0 -.995319 -.000252 503.216078)" gradientUnits="userSpaceOnUse" x1="65.7035" x2="431.3813" xlink:href="#a" y1="405.0746" y2="39.3968"/><linearGradient id="d" gradientTransform="matrix(.995319 0 0 -.995319 -.000252 503.216078)" gradientUnits="userSpaceOnUse" x1="108.5626" x2="474.2403" xlink:href="#a" y1="447.9336" y2="82.2559"/><linearGradient id="e" gradientTransform="matrix(.995319 0 0 -.995319 -.000252 503.216078)" gradientUnits="userSpaceOnUse" x1="22.8595" x2="388.5373" xlink:href="#a" y1="362.2306" y2="-3.4472"/><path d="m198.6875 509.828125c3.332031 3.332031 8.730469 3.332031 12.0625 0l247.375-247.375c1.597656-1.601563 2.5-3.769531 2.5-6.03125v-142.652344l4.769531-1.464843c21.6875-6.664063 33.867188-29.644532 27.207031-51.332032-.097656-.320312-.199218-.636718-.304687-.949218l-3.933594-11.738282c-4.195312-12.605468 2.625-26.226562 15.226563-30.421875.578125-.191406 1.160156-.359375 1.75-.507812 4.597656-1.035157 7.484375-5.601563 6.449218-10.195313-1.035156-4.597656-5.597656-7.484375-10.195312-6.449218-.128906.027343-.253906.058593-.382812.09375-22.019532 5.511718-35.398438 27.828124-29.890626 49.847656.257813 1.023437.554688 2.039062.886719 3.039062l3.933594 11.773438c4.171875 12.589844-2.652344 26.175781-15.242187 30.34375-.089844.03125-.179688.0625-.273438.089844v-10.082032c0-18.84375-15.277344-34.121094-34.121094-34.121094h-179.132812c-2.308594-.011718-4.527344.910157-6.144532 2.5625l-238.84375 247.375c-3.21875 3.347657-3.171874 8.652344.109376 11.941407zm52.308594-441.070313h175.507812c9.421875 0 17.0625 7.636719 17.0625 17.0625v15.351563l-22.480468 6.917969c-11.441407-20.378906-37.238282-27.625-57.617188-16.179688-20.378906 11.441406-27.625 37.238282-16.183594 57.617188 11.445313 20.378906 37.238282 27.625 57.621094 16.183594 13.445312-7.550782 21.722656-21.820313 21.597656-37.238282 0-1.402344-.28125-2.714844-.410156-4.078125l17.472656-5.375v133.871094l-238.847656 238.84375-184.25-184.234375zm124.703125 62.21875c1.382812 4.503907 6.15625 7.03125 10.660156 5.648438h.003906l22.96875-7.074219c-.566406 14.15625-12.5 25.171875-26.652343 24.605469-14.15625-.566406-25.171876-12.5-24.605469-26.65625.566406-14.15625 12.5-25.171875 26.65625-24.605469 7.757812.3125 14.957031 4.121094 19.578125 10.355469l-22.960938 7.0625c-4.503906 1.382812-7.03125 6.15625-5.648437 10.660156zm0 0" fill="url(#b)"/><path d="m383.851562 273.480469c0-14.132813-11.457031-25.589844-25.589843-25.589844h-238.84375c-14.132813 0-25.589844 11.457031-25.589844 25.589844 0 14.136719 11.457031 25.59375 25.589844 25.59375h238.84375c14.132812 0 25.589843-11.457031 25.589843-25.59375zm-272.964843 0c0-4.710938 3.820312-8.527344 8.53125-8.527344h238.84375c4.710937 0 8.53125 3.816406 8.53125 8.527344 0 4.710937-3.820313 8.53125-8.53125 8.53125h-238.84375c-4.710938 0-8.53125-3.820313-8.53125-8.53125zm0 0" fill="url(#c)"/><path d="m238.839844 230.832031c23.554687 0 42.652344-19.097656 42.652344-42.652343 0-23.554688-19.09375-42.652344-42.652344-42.652344-23.554688 0-42.652344 19.097656-42.652344 42.652344.03125 23.542968 19.109375 42.621093 42.652344 42.652343zm0-68.242187c14.132812 0 25.589844 11.457031 25.589844 25.589844 0 14.132812-11.457032 25.589843-25.589844 25.589843-14.132813 0-25.589844-11.457031-25.589844-25.589843 0-14.132813 11.457031-25.589844 25.589844-25.589844zm0 0" fill="url(#d)"/><path d="m238.839844 401.433594c23.554687 0 42.652344-19.09375 42.652344-42.648438 0-23.558594-19.09375-42.652344-42.652344-42.652344-23.554688 0-42.652344 19.09375-42.652344 42.652344.03125 23.542969 19.109375 42.621094 42.652344 42.648438zm0-68.242188c14.132812 0 25.589844 11.457032 25.589844 25.59375 0 14.132813-11.457032 25.589844-25.589844 25.589844-14.132813 0-25.589844-11.457031-25.589844-25.589844 0-14.136718 11.457031-25.59375 25.589844-25.59375zm0 0" fill="url(#e)"/></svg>