<!-- icon666.com - MILLIONS vector ICONS FREE --><svg xmlns="http://www.w3.org/2000/svg" xmlns:xlink="http://www.w3.org/1999/xlink" id="Layer_5" enable-background="new 0 0 64 64" viewBox="0 0 64 64"><linearGradient id="SVGID_1_" gradientUnits="userSpaceOnUse" x1="32" x2="32" y1="63" y2="1"><stop offset="0" stop-color="#16f279"/><stop offset="1" stop-color="#346e79"/></linearGradient><path d="m19 55h-2v-2.142c-1.72-.447-3-1.999-3-3.858h2c0 1.103.897 2 2 2h2v-2c0-1.103-.897-2-2-2-2.206 0-4-1.794-4-4v-4h3v-2h2v2.142c1.72.447 3 1.999 3 3.858h-2c0-1.103-.897-2-2-2h-2v2c0 1.103.897 2 2 2 2.206 0 4 1.794 4 4v4h-3zm-14-9.373v.373h2v-.373c0-.5.034-1.002.1-1.493l-1.982-.268c-.078.579-.118 1.172-.118 1.761zm7.95-13.334-4.142 4.143c-1.476 1.476-2.585 3.296-3.207 5.264l1.907.602c.533-1.686 1.445-3.184 2.713-4.451l4.142-4.143zm18.05 13.707h-2c0 .614-.051 1.231-.153 1.834l1.973.332c.119-.712.18-1.44.18-2.166zm-13 11v2c5.494 0 10.419-3.482 12.257-8.666l-1.885-.668c-1.556 4.387-5.724 7.334-10.372 7.334zm42.365-42.412 2.635.62v7.584l-2.635.62c-.333 1.16-.795 2.276-1.381 3.332l1.425 2.302-5.363 5.364-2.302-1.426c-1.057.586-2.173 1.049-3.332 1.381l-.62 2.635h-7.584l-.62-2.635c-1.159-.332-2.275-.795-3.332-1.381l-2.302 1.426-5.363-5.364 1.425-2.302c-.586-1.057-1.05-2.173-1.382-3.333l-2.88-.684-1.166 2.332c1.374.275 2.412 1.488 2.412 2.941 0 .977-.476 1.837-1.201 2.385l3.221 3.221c3.211 3.211 4.98 7.48 4.98 12.021v.373c0 9.374-7.626 17-17 17s-17-7.626-17-17v-.373c0-4.541 1.769-8.81 4.979-12.021l3.221-3.221c-.724-.548-1.2-1.408-1.2-2.385 0-1.453 1.038-2.666 2.412-2.941l-2.989-5.979c-.277-.552-.423-1.17-.423-1.788v-.292c0-2.206 1.794-4 4-4 1.328 0 2.034.808 2.501 1.342.435.497.608.658.996.658s.561-.161.996-.658c.466-.534 1.173-1.342 2.501-1.342 1.329 0 2.036.807 2.504 1.341.436.498.609.659.999.659s.563-.161.999-.659c.468-.534 1.175-1.341 2.504-1.341 1.437 0 2.689.769 3.395 1.91l1.237-.312c.333-1.163.796-2.283 1.385-3.342l-1.425-2.302 5.363-5.363 2.302 1.425c1.056-.586 2.172-1.049 3.332-1.382l.619-2.634h7.584l.62 2.634c1.16.333 2.276.795 3.332 1.382l2.302-1.425 5.363 5.363-1.425 2.302c.586 1.056 1.049 2.172 1.381 3.332zm-51.154 3.598 3.407 6.814h3.056l-1.636-5.725 1.923-.55 1.793 6.275h.491l1.793-6.275 1.923.55-1.635 5.725h3.056l3.407-6.814c.138-.276.211-.585.211-.894v-.292c0-1.103-.897-2-2-2-.39 0-.563.161-.999.659-.468.534-1.175 1.341-2.504 1.341s-2.036-.807-2.504-1.341c-.436-.498-.609-.659-.999-.659-.388 0-.561.161-.996.658-.467.534-1.173 1.342-2.501 1.342-1.329 0-2.034-.808-2.501-1.342-.435-.497-.609-.658-.996-.658-1.103 0-2 .897-2 2v.292c0 .309.073.618.211.894zm19.395 16.835-4.02-4.021h-13.172l-4.021 4.021c-2.832 2.833-4.393 6.6-4.393 10.606v.373c0 8.271 6.729 15 15 15s15-6.729 15-15v-.373c0-4.006-1.561-7.773-4.394-10.606zm-3.606-8.021h-14c-.551 0-1 .449-1 1s.449 1 1 1h14c.551 0 1-.449 1-1s-.449-1-1-1zm36-10.208-2.272-.535-.146-.595c-.338-1.377-.882-2.691-1.619-3.904l-.318-.524 1.229-1.986-3.123-3.123-1.986 1.229-.524-.318c-1.214-.737-2.528-1.281-3.904-1.619l-.595-.146-.534-2.271h-4.416l-.535 2.272-.595.146c-1.376.337-2.689.882-3.904 1.619l-.524.318-1.986-1.229-3.123 3.123 1.229 1.986-.318.524c-.737 1.214-1.281 2.528-1.619 3.904l-.143.584-2.293.579c.004.058.019.114.019.174v.292c0 .618-.146 1.236-.423 1.789l-.904 1.809 3.6.855.146.594c.337 1.376.882 2.689 1.619 3.904l.318.524-1.229 1.986 3.123 3.123 1.986-1.23.524.318c1.215.737 2.528 1.281 3.904 1.618l.595.146.533 2.272h4.416l.535-2.273.595-.146c1.375-.337 2.689-.881 3.904-1.618l.524-.318 1.986 1.23 3.123-3.123-1.229-1.986.318-.524c.736-1.213 1.281-2.527 1.619-3.904l.146-.595 2.271-.535zm-4 2.208c0 6.617-5.383 12-12 12s-12-5.383-12-12 5.383-12 12-12 12 5.383 12 12zm-2 0c0-5.514-4.486-10-10-10s-10 4.486-10 10 4.486 10 10 10 10-4.486 10-10zm-12 4.586-3.293-3.293-1.414 1.414 4.707 4.707 9.707-9.707-1.414-1.414z" fill="url(#SVGID_1_)"/></svg>